/* XPM */
static char *result[] = {
/* columns rows colors chars-per-pixel */
"112 80 5 1 ",
"  c #584422",
". c #5E8549",
"X c #78A46A",
"o c #D4D29B",
"O c None",
/* pixels */
"OOOOOOOOOOOOO      OOOOOOOOOOOOOOO   OO   OO   OOOOOOOOOOOOOOOOOOOOOOOOOOOOOOOOOOOOOOOO   OO   OOO   OO   OOOOOO",
"OOOOOOOOOOOOO X  X OOOOOOOOOOOOOOO X OO X OO X OOOOOOOOOOOOOOOOOOOOOOOOOOOOOOOOOOOOOOOO X OO X OOO X OO X OOOOOO",
"OO   OOO                OOO   OO   ..  ...  ... OOOOOOOOOOOOOOOOOOOOOOOOOOOOO  OOOOOO  ...  ...    ..  ...  OOOO",
"OO XX   oooooooooooooooo   XX OOooooXXooXoooooooOOOOOOOOOOOOOOOOOOOOOOOOOOOO oo OOOO oooXoooooooooooXXooXooo OOO",
"OOX X oXo              oXo X XOO                OOO OOOOOOOO OOOOOOOOOOOOOO oo OOOOOX                       XOOO",
"OOOX oo  XXXX .  . XXXX  oo XOOOXX . XX . XX . XOO o OOOOOO o OOOOOOOOOOOOO o OOOOOOOXX . XX . XXX . XX . XXOOOO",
"OOO oX . Xooo X  X Xooo . Xo XOOoo X Xo X Xo . XOO o XOOOOO o XOOOOOOOOOOOO o OOOOOOOOo X Xo . Xoo X Xo X XOOOOO",
"OOO o  X. ooo X  X Xoo .X  o XOOoo X Xo X Xo X X  .o       .o   OOOOOOOOO  .o   OOOOOOo X Xo X Xoo X Xo X XOOOOO",
"OO oo X X. oo X  X Xo .X X oo XOoo X Xo X Xo X X X.X .XXXXX.X . OOOOOOOO XX.X . OOOOOOo X Xo X Xoo X Xo X XOOOOO",
"OO o XoX X. o X  X X .X XoX o XOoo X Xo X Xo X X  .o       .o   OOO XOOO   .o   OOOOOOo X Xo X Xoo X Xo X XOOOOO",
"OO X XooX X.  X  X  .X Xooo X XOoo X Xo X Xo X XXX o XXXXXX o XXOO o XOOXXX o XXOOOOOOo X Xo X Xoo X Xo X XoOOOO",
"OO X XoooX X.      .X Xoooo X XO   ..  ...  ... OO o Xooooo o XOOO o Xooooo o XOOOOOO  ...  ...    ..  ...  OOOO",
"   X         XXooXX         X   ooooooooXooooooo  .o       .o     .o       .o   OOOO oooXoooooooooooooooXooo OOO",
" . o XXXXXX oo    oo XXXXXX o .                  X.o ..XXXX.o .  X.o ..XXXX.o . OOOOX                       XOOO",
"   o        o .  . o        o   XX . XX . XX . X   o       .o      o       .o   OOOOOXX . XX . XXX . XX . XXOOOO",
"OO o XXXXXX o      o XXXXXX o XOOO   XO   XO   OXX o XXXXXX o XXXX o XXXXXX o XXOOOOOOO   XO   OOO   XO   XOOOOO",
"OO o Xooooo o      o XXXXXX o XOOO o XOOOOO o XOOO o Xooooo o XOOO o Xooooo o XOOOOOOOOOOOOO   OOO   O   OOOOOOO",
"   o        o .  . o        o   OO o XXXXXX o XOOO o XXXXXX o XOOO o XXXXXX o XOOOOOO  OOOOO X OOO X O X OOOOOOO",
" X o XXXXXX oo    oo XXXXXX o .   .o       .o     .o       .o     .o       .o   OOOO o      ...    ..  ...  OOOO",
"   X         XXooXX         X    X.o .XXXXX.o .  X.o .XXXXX.o .  X.o .XXXXX.o . OOOO oooXoooooooooooXXooXooo OOO",
"OO X XXXXX ..      .. XXXXX X XO  .o        X     .o        X     .o        X   OOOOO                      oo OO",
"OO X Xooo X.  .  .  .X oooX X XOXX o XXXXXX X XXXX o XXXXXX X XXXX o XXXXXX X XXOOOOOOXXXXXX . XXX . XX . X o OO",
"OO o Xoo X. X X  X X .X ooX o XOOO o Xooooo o XOOO o Xooooo o XO   o Xooooo o XOOOOOOOoooooo . Xoo X Xo X XX XOO",
"OO oo o XX Xo X  X oX XX o oo XO  .o       .o     .o       .o    X.o   oooo.o XOOOO   oooooo X Xoo X Xoo X XXOOO",
"OOX o  XX Xoo X  X ooX XX  o XOO X.X .XXXXX.X .  X.X .XXXXX.X .   .X .X   o.X XOOO oo oo  oo X Xoo X Xoo X XOOOO",
"OOO oX X Xooo X  X oooX X Xo OOO  .o       .o     .o       .o   XX.o  XXXX .o XOOO o Oo X Xo X Xoo X Xoo X XOOOO",
"OOO  oo  Xooo X  X oooX  oo  OOOXX o XXXXXX o XXXX o XXXXXX o XXOO o X   XX o   OO o Oo X Xo X Xoo X Xooo X XOOO",
"OOO . oXo              oXo . OOOOO o Xooooo o XOOO o XOOOOO o XOOo o XXXX   o X OO oo  ...  ...    ..  .. X   OO",
"OO XX   oooooooooooooooo   XX OO  .o       .o   OOX XOOOOOOX XOO  oo XOOOOX o   OOO ooooXoooooooooooooooXooooo O",
"OO   XXX                XXX   OO X.o ..XXXX.o . OOOXOOOOOOOOXOOO oo XOOOOOO o XOOOOO                          OO",
"OOXXXOOOXXXXX .  . XXXXXOOOXXXOO   o       .o   OOOOOOOOOOOOOOOOO  XOOOOOOOO XOOOOOOOOX . XX . XXX . XXOOO . XOO",
"OOOOOOOOOOOOO      OOOOOOOOOOOOOXX o XXXXXX o XXOOOOOOOOOOOOOOOOOOOOOOOOOOOOoOOOOOOOOOO   XO   OOO   XOOOO   XOO",
"OO o Xooooo o      OOOOOOOOOOOOOOOOOOOOOOOOOO      o Xooooo o XOOOOOOOOOOOOOOOOOOOOOOOOOOOOOOOOOOOOOOOOOOOOOOOOO",
"OO o Xooooo o X  X OOOOOOOOOOOOOOOOOOOOOOOOOO X  X o Xooooo o XOOOOOOOOOOOOOOOOOOOOOOOOOOOOOOOOOOOOOOOOOOOOOOOOO",
"OO o Xoo    o                                      o    ooo o XOOOOOOOOOOOOOOOOOOOOOOOOOOOOOOOOOOOOOOOOOOOOOOOOO",
"OO o    oooooooooooooooooooooooooooooooooooooooooooooooo  X o XOOOOOOOOOOOOOOOOOOOOOOOOOOOOOOOOOOOOOOOOOOOOOOOOO",
"OO o  oXo   o          oX             oXo          o   oXo  o XOOOOOOOOOOOOOOOOOOOOOOOOOOOOOOOOOOOOOOOOOOOOOOOOO",
"OO o oo  XX o .  . XXXX  oo XoooXXXX oo  XXXX .  . o XX  oo o XOOOOOOOOOOOOOOOOOOOOOOOOOOOOOOOOOOOOOOOOOOOOOOOOO",
"OO ooX . Xo o X  X Xooo . Xo Xooooo oX . Xooo X  X o oo . Xoo XOOOOOOOOOOOOOOOOOOOOOOOOOOOOOOOOOOOOOOOOOOOOOOOOO",
"OO oo  X. o o X  X Xoo .X  o Xooooo o  X. ooo X  X o o .X  oo XOOOOOOOOOOOOOOOOOOOOOOOOOOOOOOOOOOOOOOOOOOOOOOOOO",
"OO o  X X.  o X  X Xo .X X oo Xooo oo X X. oo X  X o  .X X oo XOOOOOOOOOOOOOOOOOOOOOOOOOOOOOOOOOOOOOOOOOOOOOOOOO",
"OO o XoX X. o X  X X .X XoX o Xooo o XoX X. o X  X o .X XoX o XOOOOOOOOOOOOOOOOOOOOOOOOOOOOOOOOOOOOOOOOOOOOOOOOO",
"OO o XooX X o X  X  .X Xooo X Xooo X XooX X.  X  X o.X Xooo X XOOOOOOOOOOOOOOOOOOOOO       OOOOOOOOOOOOOOOOOOOOO",
"OO X XoooX  o               X      X       X.      oX Xoooo X XOOOOO       OOOOOOOO XXoXooo OOOOOOOOO       OOOO",
"   X        oXXooooooooooooooooooooooooooooooXXooXXo        X   OOO XXoXooo OOOOOO X  XXXXXo OOOOOOO XXoXooo OOO",
" . o XXXXXX oo    oo        o      o        oo    oo XXXXXX o . OO X  XXXXXo OOOOO X o XXXXX OOOOOO X  XXXXXo OO",
"   o        o .  . o XXXXXX o XXXX o XXXXXX o .  . o        o   OO X o XXXXX OOOOO . o XX... OOOOOO X o XXXXX OO",
"OO o XXXXXX o      o Xooooo o XOOO o Xooooo o      o XXXXXX o XXOO . o XX... OOOOO . o...o   OOOOOO . o XX... OO",
"OO o Xooooo o      o XXXXXX o XOOO o Xooooo o      o Xooooo o XOOO . o...o    OOOO ..oo  o X OOOOOO . o...o   OO",
"OO o Xooooo o .  . o        o      o        o .  . o Xooooo o XOO  ..oo  o X X OOO . oo Xooo  OOOOO ..oo  o X OO",
"   o        oo    oX XXXXXX o .  X o XXXXXX oo    oo        o   O  . oo Xooo X OOO . oooooo X OOOOO . oo Xooo OO",
"ooooooooooooooXOOXXo        o      X        oXXooXooooooooooooooO  . oooooo  X OOO    ..   o  OOOOO . oooooo  OO",
"   X               o  XXXXX o XXXX X XXXXX  o               X   O o   ..   o . OO  oo ...X o   OO  o   ..   o  O",
"XX X XXXX X.  .  . o X oooX o XOOO X Xooo X o .  .  .X oooX X XXO  oo ...X o X OO  oo ...X  X  O oo oo ...X o X ",
"oo o Xoo X. X X  X o .X ooX o XOOO o Xoo X. o X  X X .X ooX o XoO  oo ...X   . OO    ....X  .  O o  oo ...X  XX ",
"oo oo o XX Xo X  X o  XX o  o XOOO o  o XX  o X  X XX XX o oo XoO o  ....X   . OO  o        .  O .o   ...  XX.. ",
"ooX o  XX Xoo X  X o X XX  oo XOOO o   XX X o X  X XoX XX  o XooO X          . OOO X        . OO o.X     XX.... ",
"ooo oX X Xooo X  X o oX X Xoo XOOO o X X Xo o X  X XooX X Xo XooO oooooXXX.X.. OOO oooooX.X.. OO oX.X  XX....   ",
"ooo  oo  Xooo X  X o oX  oo o XOOO o oo  Xo o X  X XooX  oo  XooO XXXX........ OOO XXXX...... OO XXX.XX..... XX ",
"      oXo          o   oXo  o XOOO o  oXo   o          oXo      O XXXX........ OOO XXXX...... OOO XXX....... XX ",
"oooooooooooooooooooooooo    o XOOO o    ooo ooooooooooooooooooooO X  ......  . OO  X.........  OOO .....  .    O",
"                   o    XXX o XOOO o XXX    o                   O  oo .... oX  OO  ..........  OOOO ... XX OOOOO",
"XXXXXXXXXXXXX .  . o XXXooo o XOOO o XooXXX o .  . XXXXXXXXXXXXXOO oX      XX OOO              OOOOO .. XX OOOOO",
"OOOOOOOOOOOOO      o oooooo o XOOO o Xooooo o      OOOOOOOOOOOOOOOO  OOOOOO  OOOO  OOOOOOOOOO  OOOOOO  O  OOOOOO",
"OO            OOOOO          OOOOOOOOOOOO  OOOOOOOOOOOOOOOOOOOOOOOOOOOOOOOOOOOOOOOOOOOOOOOOOOOOOOOOOOOOOOOOOOOOO",
"O oooooXoXXXXX OOO ooooooXXXX OOOOOOOOO  oo OOOOOOOOOOOOOOOOOOOOOOOOOOOOOOOOOOOOOOOOOOOOOOOOOOOOOOOOOOOOOOOOOOOO",
"O o XXXXXXXX X OOO o XXXXXX X OOOOOOO  ooX o OOOOOOOOOOOOOOOOOOOOOOOOOOOOOOOOOOOOOOOOOOOOOOOOOOOOOOOOOOOOOOOOOOO",
"O o XXXXXXXX X OOO o XXXXXX X OOOOO  ooXXXX X OOOOOOOOOOOOOOOOOOOOOOOOOOOOOOOOOOOOOOOOOOOOOOOOOOOOOOOOOOOOOOOOOO",
"O X ........ . OO  X ...... .  OO  ooXXXX..  X OOOOOOOOOOOOOOOOOOOOOOOOOOOOOOOOOOOOOOOOOOOOOOOOOOOOOOOOOOOOOOOOO",
"O o          X OO  o        X  O ooXXXX..     X OOOOOOOOOOOOOOOOOOOOOOOOOOOOOOOOOOOOOOOOOOOOOOOOOOOOOOOOOOOOOOOO",
"O o          . OO  o        .  O o XX..      XX OOOOOOOOOOOOOOOOOOOOOOOOOOOOOOOOOOOOOOOOOOOOOOOOOOOOOOOOOOOOOOOO",
"O o          . OO  o        .  O .o .      XX.. OOOOOOOOOOOOOOOOOOOOOOOOOOOOOOOOOOOOOOOOOOOOOOOOOOOOOOOOOOOOOOOO",
"O X          . OOO X        . OO o.X     XX.... OOOOOOOOOOOOOOOOOOOOOOOOOOOOOOOOOOOOOOOOOOOOOOOOOOOOOOOOOOOOOOOO",
"O oooooXXX.X.. OOO oooooX.X.. OO oX.X  XX....   OOOOOOOOOOOOOOOOOOOOOOOOOOOOOOOOOOOOOOOOOOOOOOOOOOOOOOOOOOOOOOOO",
"O XXXX........ OOO XXXX...... OO XXX.XX..... XX OOOOOOOOOOOOOOOOOOOOOOOOOOOOOOOOOOOOOOOOOOOOOOOOOOOOOOOOOOOOOOOO",
"O XXXX........ OOO XXXX...... OOO XXX....... XX OOOOOOOOOOOOOOOOOOOOOOOOOOOOOOOOOOOOOOOOOOOOOOOOOOOOOOOOOOOOOOOO",
"O X  ......  . OO  X.........  OOO .....  .    OOOOOOOOOOOOOOOOOOOOOOOOOOOOOOOOOOOOOOOOOOOOOOOOOOOOOOOOOOOOOOOOO",
"O  oo .... oX  OO  ..........  OOOO ... XX OOOOOOOOOOOOOOOOOOOOOOOOOOOOOOOOOOOOOOOOOOOOOOOOOOOOOOOOOOOOOOOOOOOOO",
"OO oX      XX OOO              OOOOO .. XX OOOOOOOOOOOOOOOOOOOOOOOOOOOOOOOOOOOOOOOOOOOOOOOOOOOOOOOOOOOOOOOOOOOOO",
"OOO  OOOOOO  OOOO  OOOOOOOOOO  OOOOOO  O  OOOOOOOOOOOOOOOOOOOOOOOOOOOOOOOOOOOOOOOOOOOOOOOOOOOOOOOOOOOOOOOOOOOOOO"
};
