/* XPM */
static char *result[] = {
/* columns rows colors chars-per-pixel */
"64 96 5 1 ",
"  c #584422",
". c #5E8549",
"X c #78A46A",
"o c #D4D29B",
"O c None",
/* pixels */
"OOOOOOOOOOOOOOOOOOOOOOOOOOOOOOOOOOOOOOOOOOOOOOOOOOOOOOOOOOOOOOOO",
"OOOOOOOOOOOOOOOOOOOOOOOOOOOOOOOOOOOOOOOOOOOOOOOOOOOOOOOOOOOOOOOO",
"OOOOOOOOOOOOOOOOOOOOOOOOOOOOOOOOOOOOOOOOOOOOOOOOOOOOOOOOOOOOOOOO",
"OOOOOOOOOOOOOOOOOOOOOOOOOOOOOOOOOOOOOOOOOOOOOOOOOOOOOOOOOOOOOOOO",
"OOOOOO    OOOOOOOOOOOOOOOOOOOOOOOOOOOOOOOOOOOOOOOOOOOOOOOOOOOOOO",
"OOOOO XXXX OOOOOOOOOOO     OOOOOOOOOOOOOOOOOOOOOOOOOOOOOOOOOOOOO",
"OOOO ooXoXX OOOOOOOO  XXXXX OOOOOOOOOOOOOOOOOOOOOOOOOOOOOOOOOOOO",
"OOO XooXXXXX OOOOOO oooXoXXX OOOOOOOOOOOOOOOOOOOOOOOOOOOOOOOOOOO",
"OOO XXXXXX X OOOOO XoooXXXXXX OOOOOOOOOOOOOOOOOOOOOOOOOOOOOOOOOO",
"OOO XXX XXX. OOOOO XXXXXXXX X OOOOOOOOOOOOOOOOOOOOOOOOOOOOOOOOOO",
"OOO .XXXXX.. OOOOO XXXX XXXX. OOOOOOOOOOOOOOOOOOOOOOOOOOOOOOOOOO",
"OOOO .X.... OOOOOOO ..X....  OOOOOOOOOOOOOOOOOOOOOOOOOOOOOOOOOOO",
"OOOOO      OOOOOOOOO       OOOOOOOOOOOOOOOOOOOOOOOOOOOOOOOOOOOOO",
"OOOOOOOOOOOOOOOOOOOOOOOOOOOOOOOOOOOOOOOOOOOOOOOOOOOOOOOOOOOOOOOO",
"OOOOOOOOOOOOOOOOOOOOOOOOOOOOOOOOOOOOOOOOOOOOOOOOOOOOOOOOOOOOOOOO",
"OOOOOOOOOOOOOOOOOOOOOOOOOOOOOOOOOOOOOOOOOOOOOOOOOOOOOOOOOOOOOOOO",
"OOOOOOOOOOOOOOOOOOOOOOOOOOOOOOOOOOOOOOOOOOOOOOOOOOOOOOOOOOOOOOOO",
"OOOOOOOOOOOOOOOOOOOOOOOOOOOOOOOOOOOOOOOOOOOOOOOOOOOOOOOOOOOOOOOO",
"OOOOOOOOOOOOOOOOOOOOOOOOOOOOOOOOOOOOOOOOOOOOOOOOOOOOOOOOOOOOOOOO",
"OOOOOOOOOOOOOOOOOOOOOOOOOOOOOOOOOOOOOOOOOOOOOOOOOOOOOOOOOOOOOOOO",
"OOOOOO    OOOOOOOOOOOOOOOOOOOOOOOOOOOOOOOOOOOOOOOOOOOOOOOOOOOOOO",
"OOOOO XXXX OOOOOOOOOO     OOOOOOOOOOOOOOOOOOOOOOOOOOOOOOOOOOOOOO",
"OOOO XXoXoo OOOOOOOO XXXXX  OOOOOOOOOOOOOOOOOOOOOOOOOOOOOOOOOOOO",
"OOO XXXXXooX OOOOOO XXXoXooo OOOOOOOOOOOOOOOOOOOOOOOOOOOOOOOOOOO",
"OOO X XXXXXX OOOOO XXXXXXoooX OOOOOOOOOOOOOOOOOOOOOOOOOOOOOOOOOO",
"OOO .XXX XXX OOOOO X XXXXXXXX OOOOOOOOOOOOOOOOOOOOOOOOOOOOOOOOOO",
"OOO ..XXXXX. OOOOO .XXXX XXXX OOOOOOOOOOOOOOOOOOOOOOOOOOOOOOOOOO",
"OOOO ....X. OOOOOOO  ....X.. OOOOOOOOOOOOOOOOOOOOOOOOOOOOOOOOOOO",
"OOOOO      OOOOOOOOOO       OOOOOOOOOOOOOOOOOOOOOOOOOOOOOOOOOOOO",
"OOOOOOOOOOOOOOOOOOOOOOOOOOOOOOOOOOOOOOOOOOOOOOOOOOOOOOOOOOOOOOOO",
"OOOOOOOOOOOOOOOOOOOOOOOOOOOOOOOOOOOOOOOOOOOOOOOOOOOOOOOOOOOOOOOO",
"OOOOOOOOOOOOOOOOOOOOOOOOOOOOOOOOOOOOOOOOOOOOOOOOOOOOOOOOOOOOOOOO",
"OOOOOOOOOOOOOOOOOOOOOOOOOOOOOOOOOOOOOOOOOOOOOOOOOOOOOOOOOOOOOOOO",
"OOOOOOOOOOOOOOOOOOOOOOOOOOOOOOOOOOOOOO    OOOOOOOOOOOOOOOOOOOOOO",
"OOOOOOOOOOOOOOOOOOOOOOOOOOOOOOOOOOOOO XXXX OOOOOOOOOOOOOOOOOOOOO",
"OOOOOOOOOOOOOOOOOOOOOOOOOOOOOOOOOOOOO oXoX  OOOOOOOOOOOOOOOOOOOO",
"OOOOOO    OOOOOOOOOOOOOOOOOOOOOOOOOO ooXXXX OOOOOOOOOOOOOOOOOOOO",
"OOOOO XXXX OOOOOOOOOOO     OOOOOOOOO XXXXX  OOOOOOOOOOOOOOOOOOOO",
"OOOO ooXoXX OOOOOOOO  XXXXX OOOOOOOO XX XXX OOOOOOOOOOOOOOOOOOOO",
"OOO XooXXXXX OOOOOO oooXoXXX OOOOOOO .XXXX. OOOOOOOOOOOOOOOOOOOO",
"OOO XXXXXX X OOOOO XoooXXXXXX OOOOOO X..... OOOOOOOOOOOOOOOOOOOO",
"OOO XXX XXX. OOOOO XXXXXXXX X OOOOOOO XX.. OOOOOOOOOOOOOOOOOOOOO",
"OOO .XXXXX.. OOOOO XXXX XXXX. OOOOOOOO    OOOOOOOOOOOOOOOOOOOOOO",
"OOOO .X.... OOOOOOO ..X....  OOOOOOOOOOOOOOOOOOOOOOOOOOOOOOOOOOO",
"OOOOO      OOOOOOOOO       OOOOOOOOOOOOOOOOOOOOOOOOOOOOOOOOOOOOO",
"OOOOOOOOOOOOOOOOOOOOOOOOOOOOOOOOOOOOOOOOOOOOOOOOOOOOOOOOOOOOOOOO",
"OOOOOOOOOOOOOOOOOOOOOOOOOOOOOOOOOOOOOOOOOOOOOOOOOOOOOOOOOOOOOOOO",
"OOOOOOOOOOOOOOOOOOOOOOOOOOOOOOOOOOOOOOOOOOOOOOOOOOOOOOOOOOOOOOOO",
"OOOOOOOOOOOOOOOOOOOOOOOOOOOOOOOOOOOOOOOOOOOOOOOOOOOOOOOOOOOOOOOO",
"OOOOOOOOOOOOOOOOOOOOOOOOOOOOOOOOOOOOOO    OOOOOOOOOOOOOOOOOOOOOO",
"OOOOOOOOOOOOOOOOOOOOOOOOOOOOOOOOOOOOO XXXX OOOOOOOOOOOOOOOOOOOOO",
"OOOOOOOOOOOOOOOOOOOOOOOOOOOOOOOOOOOO  XoXo OOOOOOOOOOOOOOOOOOOOO",
"OOOOOO    OOOOOOOOOOOOOOOOOOOOOOOOOO XXXXoo OOOOOOOOOOOOOOOOOOOO",
"OOOOO XXXX OOOOOOOOOO     OOOOOOOOOO  XXXXX OOOOOOOOOOOOOOOOOOOO",
"OOOO XXoXoo OOOOOOOO XXXXX  OOOOOOOO XXX XX OOOOOOOOOOOOOOOOOOOO",
"OOO XXXXXooX OOOOOO XXXoXooo OOOOOOO .XXXX. OOOOOOOOOOOOOOOOOOOO",
"OOO X XXXXXX OOOOO XXXXXXoooX OOOOOO .....X OOOOOOOOOOOOOOOOOOOO",
"OOO .XXX XXX OOOOO X XXXXXXXX OOOOOOO ..XX OOOOOOOOOOOOOOOOOOOOO",
"OOO ..XXXXX. OOOOO .XXXX XXXX OOOOOOOO    OOOOOOOOOOOOOOOOOOOOOO",
"OOOO ....X. OOOOOOO  ....X.. OOOOOOOOOOOOOOOOOOOOOOOOOOOOOOOOOOO",
"OOOOO      OOOOOOOOOO       OOOOOOOOOOOOOOOOOOOOOOOOOOOOOOOOOOOO",
"OOOOOOOOOOOOOOOOOOOOOOOOOOOOOOOOOOOOOOOOOOOOOOOOOOOOOOOOOOOOOOOO",
"OOOOOOOOOOOOOOOOOOOOOOOOOOOOOOOOOOOOOOOOOOOOOOOOOOOOOOOOOOOOOOOO",
"OOOOOOOOOOOOOOOOOOOOOOOOOOOOOOOOOOOOOOOOOOOOOOOOOOOOOOOOOOOOOOOO",
"OOOOOOOOOOOOOOOOOOOOOOOOOOOOOOOOOOOOOOOOOOOOOOOOOOOOOOOOOOOOOOOO",
"OOOOOOOOOOOOOOOOOOOOOOOOOOOOOOOOOOOOOOOOOOOOOOOOOOOOOOOOOOOOOOOO",
"OOOOOOOOOOOOOOOOOOOOOOOOOOOOOOOOOOOOOOOOOOOOOOOOOOOOOOOOOOOOOOOO",
"OOOOOOOOOOOOOOOOOOOOOOOOOOOOOOOOOOOOOOOOOOOOOOOOOOOOOOOOOOOOOOOO",
"OOOOOO    OOOOOOOOOOOOOOOOOOOOOOOOOOOOOOOOOOOOOOOOOOOOOOOOOOOOOO",
"OOOOO XXXX OOOOOOOOOOO.....OOOOOOOOOOOOOOOOOOOOOOOOOOO.....OOOOO",
"OOOO ooXoXX OOOOOOOO..ooooo.OOOOOOOOOXXXXXXXOOOOOOOO..ooooo.OOOO",
"OOO XooXXXXX OOOOOO.oooooooo.OOOOOOXXoooooooXOOOOOO.oooooooo.OOO",
"OOO XXXXXX   OOOOO.oooooooooo.OOOOXooooooooooXOOOO.oooooooooo.OO",
"OOO XX  XXX. OOOOO.oooooooo...OOOXoooooooooXXXXOOO.oooooooo...OO",
"OOO .XXXXX.. OOOOO.ooo..ooooX.OOOXoooXXXooooooXOOO.ooo..ooooX.OO",
"OOOO .X.... OOOOOOO.XXoXXXX..OOOOOXoooooooooXXOOOOO.XXoXXXX..OOO",
"OOOOO      OOOOOOOOO.......OOOOOOOOXXXXXXXXXOOOOOOOO.......OOOOO",
"OOOOOOOOOOOOOOOOOOOOOOOOOOOOOOOOOOOOOOOOOOOOOOOOOOOOOOOOOOOOOOOO",
"OOOOOOOOOOOOOOOOOOOOOOOOOOOOOOOOOOOOOOOOOOOOOOOOOOOOOOOOOOOOOOOO",
"OOOOOOOOOOOOOOOOOOOOOOOOOOOOOOOOOOOOOOOOOOOOOOOOOOOOOOOOOOOOOOOO",
"OOOOOOOOOOOOOOOOOOOOOOOOOOOOOOOOOOOOOOOOOOOOOOOOOOOOOOOOOOOOOOOO",
"OOOOOOOOOOOOOOOOOOOOOOOOOOOOOOOOOOOOOOOOOOOOOOOOOOOOOOOOOOOOOOOO",
"OOOOOOOOOOOOOOOOOOOOOOOOOOOOOOOOOOOOOOOOOOOOOOOOOOOOOOOOOOOOOOOO",
"OOOOOOOOOOOOOOOOOOOOOOOOOOOOOOOOOOOOOOOOOOOOOOOOOOOOOOOOOOOOOOOO",
"OOOOOO    OOOOOOOOOOOOOOOOOOOOOOOOOOOOOOOOOOOOOOOOOOOOOOOOOOOOOO",
"OOOOO XXXX OOOOOOOOOO.....OOOOOOOOOOOOOOOOOOOOOOOOOOO.....OOOOOO",
"OOOO XXoXoo OOOOOOOO.ooooo..OOOOOOOOXXXXXXXOOOOOOOOO.ooooo..OOOO",
"OOO XXXXXooX OOOOOO.oooooooo.OOOOOOXoooooooXXOOOOOO.oooooooo.OOO",
"OOO   XXXXXX OOOOO.oooooooooo.OOOOXooooooooooXOOOO.oooooooooo.OO",
"OOO .XXX  XX OOOOO...oooooooo.OOOXXXXoooooooooXOOO...oooooooo.OO",
"OOO ..XXXXX. OOOOO.Xoooo..ooo.OOOXooooooXXXoooXOOO.Xoooo..ooo.OO",
"OOOO ....X. OOOOOOO..XXXXoXX.OOOOOXXoooooooooXOOOOO..XXXXoXX.OOO",
"OOOOO      OOOOOOOOOO.......OOOOOOOOXXXXXXXXXOOOOOOOO.......OOOO",
"OOOOOOOOOOOOOOOOOOOOOOOOOOOOOOOOOOOOOOOOOOOOOOOOOOOOOOOOOOOOOOOO",
"OOOOOOOOOOOOOOOOOOOOOOOOOOOOOOOOOOOOOOOOOOOOOOOOOOOOOOOOOOOOOOOO",
"OOOOOOOOOOOOOOOOOOOOOOOOOOOOOOOOOOOOOOOOOOOOOOOOOOOOOOOOOOOOOOOO"
};
