/* XPM */
static char *result[] = {
/* columns rows colors chars-per-pixel */
"64 96 5 1 ",
"  c #584422",
". c #5E8549",
"X c #78A46A",
"o c #D4D29B",
"O c None",
/* pixels */
"OOOOOOOOOOOOOOOOOOOOOOOOOOOOOOOOOOOOOOOOOOOOOOOOOOOOOOOOOOOOOOOO",
"OOOOOOOOOOOOOOOOOOOOOOOOOOOOOOOOOOOOOOOOOOOOOOOOOOOOOOOOOOOOOOOO",
"OOOOOOOOOOOOOOOOOOOO OOOOOOOOOOOOOOOOOOOOOOOOOOOOOOOOOOOOOOOOOOO",
"OOOO OOOOOOOOOOOOOOOO OOOOOOOOOOOOOOOOOOOOOOOOOOOOOOOOOOOOOOOOOO",
"OOOOO OOOOOOOOOOOOOOO OOOOOOOOOOOOOOOOOOOOOOOOOOOOOOOOOOOOOOOOOO",
"OO   OOOOOOOOOOOOOO  OOOOOOOOOOOOOOOOOOOOOOOOOOOOOOOOOOOOOOOOOOO",
"O OOOO   OOOOOOOOO OOO   OO OOOOOOOOOOOOOOOOOOOOOOOOOOOOOOOOOOOO",
"O OOO ooX O OOOOOO OO oo   o OOOOOOOOOOOOOOOOOOOOOOOOOOOOOOOOOOO",
"OO   oXX . o OOOOOO  oX o oX OOOOOOOOOOOOOOOOOOOOOOOOOOOOOOOOOOO",
"OOOO XX o oX OOOOOOO XX XXXXo OOOOOOOOOOOOOOOOOOOOOOOOOOOOOOOOOO",
"OOO X.X XXXXo OOOOO X.X. XoX. OOOOOOOOOOOOOOOOOOOOOOOOOOOOOOOOOO",
"OOO . .. XoX. OOOOO . .. ...  OOOOOOOOOOOOOOOOOOOOOOOOOOOOOOOOOO",
"OOOO O . ...  OOOOOO O .     OOOOOOOOOOOOOOOOOOOOOOOOOOOOOOOOOOO",
"OOOOOOO O    OOOOOOOOOO OOOOOOOOOOOOOOOOOOOOOOOOOOOOOOOOOOOOOOOO",
"OOOOOOOOOOOOOOOOOOOOOOOOOOOOOOOOOOOOOOOOOOOOOOOOOOOOOOOOOOOOOOOO",
"OOOOOOOOOOOOOOOOOOOOOOOOOOOOOOOOOOOOOOOOOOOOOOOOOOOOOOOOOOOOOOOO",
"OOOOOOOOOOOOOOOOOOOOOOOOOOOOOOOOOOOOOOOOOOOOOOOOOOOOOOOOOOOOOOOO",
"OOOOOOOOOOOOOOOOOOOOOOOOOOOOOOOOOOOOOOOOOOOOOOOOOOOOOOOOOOOOOOOO",
"OOOOOOOOOOOOOOOOOOOOOOOOOOO OOOOOOOOOOOOOOOOOOOOOOOOOOOOOOOOOOOO",
"OOOOOOOOOOO OOOOOOOOOOOOOO OOOOOOOOOOOOOOOOOOOOOOOOOOOOOOOOOOOOO",
"OOOOOOOOOO OOOOOOOOOOOOOOO OOOOOOOOOOOOOOOOOOOOOOOOOOOOOOOOOOOOO",
"OOOOOOOOOOO   OOOOOOOOOOOOO  OOOOOOOOOOOOOOOOOOOOOOOOOOOOOOOOOOO",
"OOOOOOO   OOOO OOOOO OO   OOO OOOOOOOOOOOOOOOOOOOOOOOOOOOOOOOOOO",
"OOOO O Xoo OOO OOOO o   oo OO OOOOOOOOOOOOOOOOOOOOOOOOOOOOOOOOOO",
"OOO o . XXo   OOOOO Xo o Xo  OOOOOOOOOOOOOOOOOOOOOOOOOOOOOOOOOOO",
"OOO Xo o XX OOOOOO oXXXX XX OOOOOOOOOOOOOOOOOOOOOOOOOOOOOOOOOOOO",
"OO oXXXX X.X OOOOO .XoX .X.X OOOOOOOOOOOOOOOOOOOOOOOOOOOOOOOOOOO",
"OO .XoX .. . OOOOO  ... .. . OOOOOOOOOOOOOOOOOOOOOOOOOOOOOOOOOOO",
"OO  ... . O OOOOOOO     . O OOOOOOOOOOOOOOOOOOOOOOOOOOOOOOOOOOOO",
"OOO    O OOOOOOOOOOOOOOO OOOOOOOOOOOOOOOOOOOOOOOOOOOOOOOOOOOOOOO",
"OOOOOOOOOOOOOOOOOOOOOOOOOOOOOOOOOOOOOOOOOOOOOOOOOOOOOOOOOOOOOOOO",
"OOOOOOOOOOOOOOOOOOOOOOOOOOOOOOOOOOOOOOOOOOOOOOOOOOOOOOOOOOOOOOOO",
"OOOOOOOOOOOOOOOOOOOO OOOOOOOOOOOOOOOOOOOOOOOOOOOOOOOOOOOOOOOOOOO",
"OOOOOOOOOOOOOOOOOOOOO OOOOOOOOOOOOOOO OOOOOOOOOOOOOOOOOOOOOOOOOO",
"OOOOOOOOOOOOOOOOOOOOO OOOOOOOOOOOOOOOO OOOOOOOOOOOOOOOOOOOOOOOOO",
"OOOO OOOOOOOOOOOOOO  OOOOOOOOOOOOOOOOO OOOOOOOOOOOOOOOOOOOOOOOOO",
"OOOOO OOOOOOOOOOOO OOO   OO OOOOOOOO  OOOOOOOOOOOOOOOOOOOOOOOOOO",
"OO   OOOOOO OOOOOO OO oo   o OOOOOO OO   OOOOOOOOOOOOOOOOOOOOOOO",
"O OOOO     o OOOOOO  oX o oX OOOOOO O ooo O OOOOOOOOOOOOOOOOOOOO",
"O OOO o o oX OOOOOOO XX XXXXo OOOOOO oXX X o OOOOOOOOOOOOOOOOOOO",
"OO   oX XXXXo OOOOO X... XoX. OOOOOO XX o oX OOOOOOOOOOOOOOOOOOO",
"OOOO XX. XoX. OOOOO .    ...  OOOOO X.X XXXXo OOOOOOOOOOOOOOOOOO",
"OOOO X.. ...  OOOOOO OO .    OOOOOO . X. XoX. OOOOOOOOOOOOOOOOOO",
"OOOO X  .    OOOOOOOOOOO OOOOOOOOOOO O . ...  OOOOOOOOOOOOOOOOOO",
"OOOO . O OOOOOOOOOOOOOOOOOOOOOOOOOOOOO .     OOOOOOOOOOOOOOOOOOO",
"OOOOO OOOOOOOOOOOOOOOOOOOOOOOOOOOOOOOOO OOOOOOOOOOOOOOOOOOOOOOOO",
"OOOOOOOOOOOOOOOOOOOOOOOOOOOOOOOOOOOOOOOOOOOOOOOOOOOOOOOOOOOOOOOO",
"OOOOOOOOOOOOOOOOOOOOOOOOOOOOOOOOOOOOOOOOOOOOOOOOOOOOOOOOOOOOOOOO",
"OOOOOOOOOOOOOOOOOOOOOOOOOOO OOOOOOOOOOOOOOOOOOOOOOOOOOOOOOOOOOOO",
"OOOOOOOOOOOOOOOOOOOOOOOOOO OOOOOOOOOOOOOOO OOOOOOOOOOOOOOOOOOOOO",
"OOOOOOOOOOOOOOOOOOOOOOOOOO OOOOOOOOOOOOOO OOOOOOOOOOOOOOOOOOOOOO",
"OOOOOOOOOOO OOOOOOOOOOOOOOO  OOOOOOOOOOOO OOOOOOOOOOOOOOOOOOOOOO",
"OOOOOOOOOO OOOOOOOOO OO   OOO OOOOOOOOOOOO  OOOOOOOOOOOOOOOOOOOO",
"OOOO OOOOOO   OOOOO o   oo OO OOOOOOOOO   OO OOOOOOOOOOOOOOOOOOO",
"OOO o     OOOO OOOO Xo o Xo  OOOOOOO O ooo O OOOOOOOOOOOOOOOOOOO",
"OOO Xo o o OOO OOO oXXXX XX OOOOOOO o X XXo OOOOOOOOOOOOOOOOOOOO",
"OO oXXXX Xo   OOOO .XoX ...X OOOOOO Xo o XX OOOOOOOOOOOOOOOOOOOO",
"OO .XoX .XX OOOOOO  ...    . OOOOO oXXXX X.X OOOOOOOOOOOOOOOOOOO",
"OO  ... ..X OOOOOOO    . OO OOOOOO .XoX .X . OOOOOOOOOOOOOOOOOOO",
"OOO    .  X OOOOOOOOOOO OOOOOOOOOO  ... . O OOOOOOOOOOOOOOOOOOOO",
"OOOOOOO O . OOOOOOOOOOOOOOOOOOOOOOO     . OOOOOOOOOOOOOOOOOOOOOO",
"OOOOOOOOOO OOOOOOOOOOOOOOOOOOOOOOOOOOOOO OOOOOOOOOOOOOOOOOOOOOOO",
"OOOOOOOOOOOOOOOOOOOOOOOOOOOOOOOOOOOOOOOOOOOOOOOOOOOOOOOOOOOOOOOO",
"OOOOOOOOOOOOOOOOOOOOOOOOOOOOOOOOOOOOOOOOOOOOOOOOOOOOOOOOOOOOOOOO",
"OOOOOOOOOOOOOOOOOOOOOOOOOOOOOOOOOOOOOOOOOOOOOOOOOOOOOOOOOOOOOOOO",
"OOOOOOOOOOOOOOOOOOOOOOOOOOOOOOOOOOOOOOOOOOOOOOOOOOOOOOOOOOOOOOOO",
"OOOOOOOOOOOOOOOOOOOOOOOOOOOOOOOOOOOOOOOOOOOOOOOOOOOOOOOOOOOOOOOO",
"OOOO OOOOOOOOOOOOOOOOOOOOOOOOOOOOOOOOOOOOOOOOOOOOOOOOOOOOOOOOOOO",
"OOOOO OOOOOOOOOOOOOO.OOOOOOOOOOOOOOOOOOOOOOOOOOOOOOO.OOOOOOOOOOO",
"OO   OOOOOOOOOOOOOOOO.OOOOOOOOOOOOOOXOOOOOOOOOOOOOOOO.OOOOOOOOOO",
"O OOOO   OOOOOOOO....OOOOOOOOOOOOOOOOXOOOOOOOOOOO....OOOOOOOOOOO",
"O OOO ooX O OOOO.OOOOO....OOOOOOOXXXXOOOOOOOOOOO.OOOOO....OOOOOO",
"OO   oXX . o OOO.OOOO.oooX...OOOXOOOOOXXXXXOOOOO.OOOO.oooX...OOO",
"OOOO XX o oX OOOO....oXXX.X.o.OOXOOOOXoooooXXXOOO....oXXX.X.o.OO",
"OOO X.X XXXX  OOOOO..XXX.o.oX..OOXXXXoooooooooXOOOO..XXX.o.oX..O",
"OOO . ..   X. OOOOO.X.XXX...XX.OOOOXXooooXXooXXXOOO.X.XXX...XX.O",
"OOOO O . ...  OOOOOO.O..X.XXX..OOOOOXXXoooooooXXOOOO.O..X.XXX..O",
"OOOOOOO O    OOOOOOOOOOO......OOOOOOOOOXXXXXXXXOOOOOOOOO......OO",
"OOOOOOOOOOOOOOOOOOOOOOOOOOOOOOOOOOOOOOOOOOOOOOOOOOOOOOOOOOOOOOOO",
"OOOOOOOOOOOOOOOOOOOOOOOOOOOOOOOOOOOOOOOOOOOOOOOOOOOOOOOOOOOOOOOO",
"OOOOOOOOOOOOOOOOOOOOOOOOOOOOOOOOOOOOOOOOOOOOOOOOOOOOOOOOOOOOOOOO",
"OOOOOOOOOOOOOOOOOOOOOOOOOOOOOOOOOOOOOOOOOOOOOOOOOOOOOOOOOOOOOOOO",
"OOOOOOOOOOOOOOOOOOOOOOOOOOOOOOOOOOOOOOOOOOOOOOOOOOOOOOOOOOOOOOOO",
"OOOOOOOOOOO OOOOOOOOOOOOOOOOOOOOOOOOOOOOOOOOOOOOOOOOOOOOOOOOOOOO",
"OOOOOOOOOO OOOOOOOOOOOOOOOO.OOOOOOOOOOOOOOOOOOOOOOOOOOOOOOO.OOOO",
"OOOOOOOOOOO   OOOOOOOOOOOO.OOOOOOOOOOOOOOOOXOOOOOOOOOOOOOO.OOOOO",
"OOOOOOO   OOOO OOOOOOOOOOOO....OOOOOOOOOOOXOOOOOOOOOOOOOOOO....O",
"OOOO O Xoo OOO OOOOOOO....OOOOO.OOOOOOOOOOOXXXXOOOOOOO....OOOOO.",
"OOO o . XXo   OOOOO...Xooo.OOOO.OOOOOXXXXXOOOOOXOOO...Xooo.OOOO.",
"OOO Xo o XX OOOOOO.o.X.XXXo....OOOXXXoooooXOOOOXOO.o.X.XXXo....O",
"OO  XXXX X.X OOOO..Xo.o.XXX..OOOOXoooooooooXXXXOO..Xo.o.XXX..OOO",
"OO .X   .. . OOOO.XX...XXX.X.OOOXXXooXXooooXXOOOO.XX...XXX.X.OOO",
"OO  ... . O OOOOO..XXX.X..O.OOOOXXoooooooXXXOOOOO..XXX.X..O.OOOO",
"OOO    O OOOOOOOOO......OOOOOOOOOXXXXXXXXOOOOOOOOO......OOOOOOOO",
"OOOOOOOOOOOOOOOOOOOOOOOOOOOOOOOOOOOOOOOOOOOOOOOOOOOOOOOOOOOOOOOO",
"OOOOOOOOOOOOOOOOOOOOOOOOOOOOOOOOOOOOOOOOOOOOOOOOOOOOOOOOOOOOOOOO"
};
