/* XPM */
static char *result[] = {
/* columns rows colors chars-per-pixel */
"112 144 5 1 ",
"  c #584422",
". c #5E8549",
"X c #78A46A",
"o c #D4D29B",
"O c None",
/* pixels */
"OOOO       OOOOOOOOOOOOOOOOOOOOOOOOOOOOOOOOOOOOOOOOOOOOOOOOOOOOOOOOOOOOOOOOOOOOOOOOOOOOOOOOOOOOOOOOOOOOOOOOOOOOO",
"OOO XXoXooo OOOOOOOO       OOOOOOOOO       OOOOOOOOOOOOOOOOOOOOOOOOOOOOOOOOOOOOOOOOOOOOOOOOOOOOOOOOOOOOOOOOOOOOO",
"OO X  XXXXXo OOOOOO XXoXooo OOOOOOO XXoXooo OOOOOOOOOOOOOOOOOOOOOOOOOOOOOOOOOOOOOOOOOOOOOOOOOOOOOOOOOOOOOOOOOOOO",
"OO X o XXXXX OOOOO X  XXXXXo OOOOO X  XXXXXo OOOOOOOOOOOOOOOOOOOOOOOOOOOOOOOOOOOOOOOOOOOOOOOOOOOOOOOOOOOOOOOOOOO",
"OO . o XX... OOOOO . o XXXXX OOOOO X o XXXXX OOOOOOOOOOOOOOOOOOOOOOOOOOOOOOOOOOOOOOOOOOOOOOOOOOOOOOOOOOOOOOOOOOO",
"OO . o...o   OOOOO . o XX... OOOOO . o XX... OOOOOOOOOOOOOOOOOOOOOOOOOOOOOOOOOOOOOOOOOOOOOOOOOOOOOOOOOOOOOOOOOOO",
"OO ..oo  o X OOOOO . o...o   OOOOO . o...o   OOOOOOOOOOOOOOOOOOOOOOOOOOOOOOOOOOOOOOOOOOOOOOOOOOOOOOOOOOOOOOOOOOO",
"OO . oo Xooo OOOO ...oo  o X OOOOO ..oo  o X OOOOOOOOOOOOOOOOOOOOOOOOOOOOOOOOOOOOOOOOOOOOOOOOOOOOOOOOOOOOOOOOOOO",
"OO . oooooo OOOOO .. oo Xooo OOOOO . oo Xooo OOOOOOOOOOOOOOOOOOOOOOOOOOOOOOOOOOOOOOOOOOOOOOOOOOOOOOOOOOOOOOOOOOO",
"OOO   ..   o OOOOO   oooooo  OOOOO . oooooo OOOOOOOOOOOOOOOOOOOOOOOOOOOOOOOOOOOOOOOOOOOOOOOOOOOOOOOOOOOOOOOOOOOO",
"OO oo ...X o OOOOO    ..   oo OOOOO   ..   o OOOOOOOOOOOOOOOOOOOOOOOOOOOOOOOOOOOOOOOOOOOOOOOOOOOOOOOOOOOOOOOOOOO",
"OO oo ...X  OOOOO oo ....X oo OOOO oo ...X o OOOOOOOOOOOOOOOOOOOOOOOOOOOOOOOOOOOOOOOOOOOOOOOOOOOOOOOOOOOOOOOOOOO",
"OOO  ....X OOOOOO oo ....X   OOOOO oo ...X  OOOOOOOOOOOOOOOOOOOOOOOOOOOOOOOOOOOOOOOOOOOOOOOOOOOOOOOOOOOOOOOOOOOO",
"OOOO ..    OOOOOOO   ..    OOOOOOOO  ..    OOOOOOOOOOOOOOOOOOOOOOOOOOOOOOOOOOOOOOOOOOOOOOOOOOOOOOOOOOOOOOOOOOOOO",
"OOOO   OO  OOOOOOOOO   OO  OOOOOOOOO   OO  OOOOOOOOOOOOOOOOOOOOOOOOOOOOOOOOOOOOOOOOOOOOOOOOOOOOOOOOOOOOOOOOOOOOO",
"OOOO  OOOOOOOOOOOOOO  OOOOOOOOOOOOOO  OOOOOOOOOOOOOOOOOOOOOOOOOOOOOOOOOOOOOOOOOOOOOOOOOOOOOOOOOOOOOOOOOOOOOOOOOO",
"OOOOO       OOOOOOOOOOOOOOOOOOOOOOOOOOOOOOOOOOOOOOOOOOOOOOOOOOOOOOOOOOOOOOOOOOOOOOOOOOOOOOOOOOOOOOOOOOOOOOOOOOOO",
"OOOO oooXoXX OOOOOOOO       OOOOOOOOO       OOOOOOOOOOOOOOOOOOOOOOOOOOOOOOOOOOOOOOOOOOOOOOOOOOOOOOOOOOOOOOOOOOOO",
"OOO oXXXXX  X OOOOOO oooXoXX OOOOOOO oooXoXX OOOOOOOOOOOOOOOOOOOOOOOOOOOOOOOOOOOOOOOOOOOOOOOOOOOOOOOOOOOOOOOOOOO",
"OOO XXXXX o X OOOOO oXXXXX  X OOOOO oXXXXX  X OOOOOOOOOOOOOOOOOOOOOOOOOOOOOOOOOOOOOOOOOOOOOOOOOOOOOOOOOOOOOOOOOO",
"OOO ...XX o . OOOOO XXXXX o . OOOOO XXXXX o X OOOOOOOOOOOOOOOOOOOOOOOOOOOOOOOOOOOOOOOOOOOOOOOOOOOOOOOOOOOOOOOOOO",
"OOO   o...o . OOOOO ...XX o . OOOOO ...XX o . OOOOOOOOOOOOOOOOOOOOOOOOOOOOOOOOOOOOOOOOOOOOOOOOOOOOOOOOOOOOOOOOOO",
"OOO X o  oo.. OOOOO   o...o . OOOOO   o...o . OOOOOOOOOOOOOOOOOOOOOOOOOOOOOOOOOOOOOOOOOOOOOOOOOOOOOOOOOOOOOOOOOO",
"OOO oooX oo . OOOOO X o  oo... OOOO X o  oo.. OOOOOOOOOOOOOOOOOOOOOOOOOOOOOOOOOOOOOOOOOOOOOOOOOOOOOOOOOOOOOOOOOO",
"OOOO oooooo . OOOOO oooX oo .. OOOO oooX oo . OOOOOOOOOOOOOOOOOOOOOOOOOOOOOOOOOOOOOOOOOOOOOOOOOOOOOOOOOOOOOOOOOO",
"OOO o   ..   OOOOOO  oooooo   OOOOOO oooooo . OOOOOOOOOOOOOOOOOOOOOOOOOOOOOOOOOOOOOOOOOOOOOOOOOOOOOOOOOOOOOOOOOO",
"OOO o X... oo OOOO oo   ..    OOOOO o   ..   OOOOOOOOOOOOOOOOOOOOOOOOOOOOOOOOOOOOOOOOOOOOOOOOOOOOOOOOOOOOOOOOOOO",
"OOOO  X... oo OOOO oo X.... oo OOOO o X... oo OOOOOOOOOOOOOOOOOOOOOOOOOOOOOOOOOOOOOOOOOOOOOOOOOOOOOOOOOOOOOOOOOO",
"OOOOO X....  OOOOOO   X.... oo OOOOO  X... oo OOOOOOOOOOOOOOOOOOOOOOOOOOOOOOOOOOOOOOOOOOOOOOOOOOOOOOOOOOOOOOOOOO",
"OOOOO    .. OOOOOOOOO    ..   OOOOOOO    ..  OOOOOOOOOOOOOOOOOOOOOOOOOOOOOOOOOOOOOOOOOOOOOOOOOOOOOOOOOOOOOOOOOOO",
"OOOOO  OO   OOOOOOOOO  OO   OOOOOOOOO  OO   OOOOOOOOOOOOOOOOOOOOOOOOOOOOOOOOOOOOOOOOOOOOOOOOOOOOOOOOOOOOOOOOOOOO",
"OOOOOOOOOO  OOOOOOOOOOOOOO  OOOOOOOOOOOOOO  OOOOOOOOOOOOOOOOOOOOOOOOOOOOOOOOOOOOOOOOOOOOOOOOOOOOOOOOOOOOOOOOOOOO",
"OOOO       OOOOOOOOOOOOOOOOOOOOOOOOO       OOOOOOOOOOOOOOOOOOOOOOOOOOOOOOOOOOOOOOOOOOOOOOOOOOOOOOOOOOOOOOOOOOOOO",
"OOO XXoXooo OOOOOOOO       OOOOOOOO XXoXooo OOOOOOOO       OOOOOOOOOOOOOOOOOOOOOOOOOOOOOOOOOOOOOOOOOOOOOOOOOOOOO",
"OO X  XXXXXo OOOOOO XXoXooo OOOOOO X  XXXXXo OOOOOO XXoXooo OOOOOOOOOOOOOOOOOOOOOOOOOOOOOOOOOOOOOOOOOOOOOOOOOOOO",
"OO X o XXXXX OOOOO X  XXXXXo OOOOO X o XXXXX OOOOO X  XXXXXo OOOOOOOOOOOOOOOOOOOOOOOOOOOOOOOOOOOOOOOOOOOOOOOOOOO",
"OO . o XX... OOOOO . o XXXXX OOOOO . o XX... OOOOO . o XXXXX OOOOOOOOOOOOOOOOOOOOOOOOOOOOOOOOOOOOOOOOOOOOOOOOOOO",
"OO . o...o   OOOOO . o XX... OOOOO . o...o   OOOOO . o XX... OOOOOOOOOOOOOOOOOOOOOOOOOOOOOOOOOOOOOOOOOOOOOOOOOOO",
"OO ..oo  o X OOOOO . o...o   OOOOO ..oo  o X OOOOO . o...o   OOOOOOOOOOOOOOOOOOOOOOOOOOOOOOOOOOOOOOOOOOOOOOOOOOO",
"OO . oo Xooo OOOOO ..oo  o X OOOOO . oo Xooo OOOO ...oo  o X OOOOOOOOOOOOOOOOOOOOOOOOOOOOOOOOOOOOOOOOOOOOOOOOOOO",
"OO . oooooo OOOOOOO .oo Xooo OOOOO . oooooo OOOOO .. oo Xooo OOOOOOOOOOOOOOOOOOOOOOOOOOOOOOOOOOOOOOOOOOOOOOOOOOO",
"OOO  ...   o OOOOOOO oooooo  OOOOOO  ...   o OOOOO   oooooo OOOOOOOOOOOOOOOOOOOOOOOOOOOOOOOOOOOOOOOOOOOOOOOOOOOO",
"OO oo ...X o OOOOO   ...    o OOOO oo .... o OOOOOOO  ..   OOOOOOOOOOOOOOOOOOOOOOOOOOOOOOOOOOOOOOOOOOOOOOOOOOOOO",
"OO oo ...X  OOOOO oo ....X oo OOOO oo ...X  OOOOOOO oo ..X OOOOOOOOOOOOOOOOOOOOOOOOOOOOOOOOOOOOOOOOOOOOOOOOOOOOO",
"OOO   .     OOOOO oo  ...X   OOOOOO  ...  OOOOOOOOO oo ..X OOOOOOOOOOOOOOOOOOOOOOOOOOOOOOOOOOOOOOOOOOOOOOOOOOOOO",
"OOO    OOO  OOOOOO    . .X OOOOOOOOOO     OOOOOOOOOO  .   OOOOOOOOOOOOOOOOOOOOOOOOOOOOOOOOOOOOOOOOOOOOOOOOOOOOOO",
"OOOOOOOOOOOOOOOOOOOO   O . OOOOOOOOOOOOOOOOOOOOOOOOO   O  OOOOOOOOOOOOOOOOOOOOOOOOOOOOOOOOOOOOOOOOOOOOOOOOOOOOOO",
"OOOOOOOOOOOOOOOOOOOOOOOOO  OOOOOOOOOOOOOOOOOOOOOOOOO  OOOOOOOOOOOOOOOOOOOOOOOOOOOOOOOOOOOOOOOOOOOOOOOOOOOOOOOOOO",
"OOOOO       OOOOOOOOOOOOOOOOOOOOOOOOO       OOOOOOOOOOOOOOOOOOOOOOOOOOOOOOOOOOOOOOOOOOOOOOOOOOOOOOOOOOOOOOOOOOOO",
"OOOO oooXoXX OOOOOOOO       OOOOOOOO oooXoXX OOOOOOOO       OOOOOOOOOOOOOOOOOOOOOOOOOOOOOOOOOOOOOOOOOOOOOOOOOOOO",
"OOO oXXXXX  X OOOOOO oooXoXX OOOOOO oXXXXX  X OOOOOO oooXoXX OOOOOOOOOOOOOOOOOOOOOOOOOOOOOOOOOOOOOOOOOOOOOOOOOOO",
"OOO XXXXX o X OOOOO oXXXXX  X OOOOO XXXXX o X OOOOO oXXXXX  X OOOOOOOOOOOOOOOOOOOOOOOOOOOOOOOOOOOOOOOOOOOOOOOOOO",
"OOO ...XX o . OOOOO XXXXX o . OOOOO ...XX o . OOOOO XXXXX o . OOOOOOOOOOOOOOOOOOOOOOOOOOOOOOOOOOOOOOOOOOOOOOOOOO",
"OOO   o...o . OOOOO ...XX o . OOOOO   o...o . OOOOO ...XX o . OOOOOOOOOOOOOOOOOOOOOOOOOOOOOOOOOOOOOOOOOOOOOOOOOO",
"OOO X o  oo.. OOOOO   o...o . OOOOO X o  oo.. OOOOO   o...o . OOOOOOOOOOOOOOOOOOOOOOOOOOOOOOOOOOOOOOOOOOOOOOOOOO",
"OOO oooX oo . OOOOO X o  oo.. OOOOO oooX oo . OOOOO X o  oo... OOOOOOOOOOOOOOOOOOOOOOOOOOOOOOOOOOOOOOOOOOOOOOOOO",
"OOOO oooooo . OOOOO oooX oo. OOOOOOO oooooo . OOOOO oooX oo .. OOOOOOOOOOOOOOOOOOOOOOOOOOOOOOOOOOOOOOOOOOOOOOOOO",
"OOO o   ...  OOOOOO  oooooo OOOOOOO o   ...  OOOOOOO oooooo   OOOOOOOOOOOOOOOOOOOOOOOOOOOOOOOOOOOOOOOOOOOOOOOOOO",
"OOO o X... oo OOOO o    ...   OOOOO o .... oo OOOOOOO   ..  OOOOOOOOOOOOOOOOOOOOOOOOOOOOOOOOOOOOOOOOOOOOOOOOOOOO",
"OOOO  X... oo OOOO oo X.... oo OOOOO  X... oo OOOOOOO X.. oo OOOOOOOOOOOOOOOOOOOOOOOOOOOOOOOOOOOOOOOOOOOOOOOOOOO",
"OOOO     .   OOOOOO   X...  oo OOOOOOO  ...  OOOOOOOO X.. oo OOOOOOOOOOOOOOOOOOOOOOOOOOOOOOOOOOOOOOOOOOOOOOOOOOO",
"OOOO  OOO    OOOOOOOO X. .    OOOOOOOO     OOOOOOOOOOO   .  OOOOOOOOOOOOOOOOOOOOOOOOOOOOOOOOOOOOOOOOOOOOOOOOOOOO",
"OOOOOOOOOOOOOOOOOOOOO . O   OOOOOOOOOOOOOOOOOOOOOOOOOO  O   OOOOOOOOOOOOOOOOOOOOOOOOOOOOOOOOOOOOOOOOOOOOOOOOOOOO",
"OOOOOOOOOOOOOOOOOOOOO  OOOOOOOOOOOOOOOOOOOOOOOOOOOOOOOOOOO  OOOOOOOOOOOOOOOOOOOOOOOOOOOOOOOOOOOOOOOOOOOOOOOOOOOO",
"OOOO       OOOOOOOOOOOOOOOOOOOOOOOOOOOOOOOOOOOOOOOOOOOOOOOOOOOOOOOOO       OOOOOOOOOOOOOOOOOOOOOOOOOOOOOOOOOOOOO",
"OOO XXoXooo OOOOOOO........OOOOOOOOOOOOOOOOOOOOOOOO........OOOOOOOO XXoXooo OOOOOOOOOOOOOOOOOOOOOOOOOOOOOOOOOOOO",
"OO X  XXXXXo OOOOO.oooooooo.OOOOOOOXXXXXXXXXOOOOOO.oooooooo.OOOOOO X  XXXXXo OOOOOOOOOOOOOOOOOOOOOOOOOOOOOOOOOOO",
"OO X o XXXXX OOOO.o..ooooooo.OOOOOXoooooooooXOOOO.o..ooooooo.OOOOO X o XXXXX OOOOOOOOOOOOOOOOOOOOOOOOOOOOOOOOOOO",
"OO . o XX... OOOO.o.o.oooooo.OOOOXoXXooooooooXOOO.o.o.oooooo.OOOOO . o XX... OOOOOOOOOOOOOOOOOOOOOOOOOOOOOOOOOOO",
"OO . o...o   OOOO.X.o.oooXXX.OOOOXoXoXoooooooXOOO.X.o.oooXXX.OOOOO . o...o   OOOOOOOOOOOOOOOOOOOOOOOOOOOOOOOOOOO",
"OO ..oo  o X OOOO.X.oXXXXo...OOOOXoXoXoooooooXOOO.X.oXXXXo...OOOOO ..oo  o X OOOOOOOOOOOOOOOOOOOOOOOOOOOOOOOOOOO",
"OO . oo Xooo OOOO.XXoo..oooo.OOOOXoXoooooooXXXOOO.XXoo..oooo.OOOOO . oo Xooo OOOOOOOOOOOOOOOOOOOOOOOOOOOOOOOOOOO",
"OO . oooooo OOOOO.X.oooooooo.OOOOXooooXXoooooXOOO.X.oooooooo.OOOOO . oooooo OOOOOOOOOOOOOOOOOOOOOOOOOOOOOOOOOOOO",
"OOO   ..   o OOOO...ooooooo.OOOOOXoXooooooooXOOOO...ooooooo.OOOOOOO   ..   o OOOOOOOOOOOOOOOOOOOOOOOOOOOOOOOOOOO",
"OO oo ...X o OOOO.oo.XX....o.OOOOOXXXoooXXXXoXOOO.oo.XX....o.OOOOO oo ...X o OOOOOOOOOOOOOOOOOOOOOOOOOOOOOOOOOOO",
"OO oo ...X  OOOOO.oo.XXXXo.o.OOOOXooXooooooXoXOOO.oo.XXXXo.o.OOOOO oo ...X  OOOOOOOOOOOOOOOOOOOOOOOOOOOOOOOOOOOO",
"OOO  ....X OOOOOOO..XXXXXo..OOOOOXooXoXXXXXXXOOOOO..XXXXXo..OOOOOOO  ....X OOOOOOOOOOOOOOOOOOOOOOOOOOOOOOOOOOOOO",
"OOOO ..    OOOOOOOO.XX.....OOOOOOOXXooXOOXXXOOOOOOO.XX.....OOOOOOOOO ..    OOOOOOOOOOOOOOOOOOOOOOOOOOOOOOOOOOOOO",
"OOOO   OO  OOOOOOOO...OO...OOOOOOOOXXXOOOOOOOOOOOOO...OO...OOOOOOOOO   OO  OOOOOOOOOOOOOOOOOOOOOOOOOOOOOOOOOOOOO",
"OOOO  OOOOOOOOOOOOO..OOOOOOOOOOOOOOOOOOOOOOOOOOOOOO..OOOOOOOOOOOOOOO  OOOOOOOOOOOOOOOOOOOOOOOOOOOOOOOOOOOOOOOOOO",
"OOOOO       OOOOOOOOOOOOOOOOOOOOOOOOOOOOOOOOOOOOOOOOOOOOOOOOOOOOOOOOO       OOOOOOOOOOOOOOOOOOOOOOOOOOOOOOOOOOOO",
"OOOO oooXoXX OOOOOOOO........OOOOOOOOOOOOOOOOOOOOOOOO........OOOOOOO oooXoXX OOOOOOOOOOOOOOOOOOOOOOOOOOOOOOOOOOO",
"OOO oXXXXX  X OOOOOO.oooooooo.OOOOOOXXXXXXXXXOOOOOOO.oooooooo.OOOOO oXXXXX  X OOOOOOOOOOOOOOOOOOOOOOOOOOOOOOOOOO",
"OOO XXXXX o X OOOOO.ooooooo..o.OOOOXoooooooooXOOOOO.ooooooo..o.OOOO XXXXX o X OOOOOOOOOOOOOOOOOOOOOOOOOOOOOOOOOO",
"OOO ...XX o . OOOOO.oooooo.o.o.OOOXooooooooXXoXOOOO.oooooo.o.o.OOOO ...XX o . OOOOOOOOOOOOOOOOOOOOOOOOOOOOOOOOOO",
"OOO   o...o . OOOOO.XXXooo.o.X.OOOXoooooooXoXoXOOOO.XXXooo.o.X.OOOO   o...o . OOOOOOOOOOOOOOOOOOOOOOOOOOOOOOOOOO",
"OOO X o  oo.. OOOOO...oXXXXo.X.OOOXoooooooXoXoXOOOO...oXXXXo.X.OOOO X o  oo.. OOOOOOOOOOOOOOOOOOOOOOOOOOOOOOOOOO",
"OOO oooX oo . OOOOO.oooo..ooXX.OOOXXXoooooooXoXOOOO.oooo..ooXX.OOOO oooX oo . OOOOOOOOOOOOOOOOOOOOOOOOOOOOOOOOOO",
"OOOO oooooo . OOOOO.oooooooo.X.OOOXoooooXXooooXOOOO.oooooooo.X.OOOOO oooooo . OOOOOOOOOOOOOOOOOOOOOOOOOOOOOOOOOO",
"OOO o   ..   OOOOOOO.ooooooo...OOOOXooooooooXoXOOOOO.ooooooo...OOOO o   ..   OOOOOOOOOOOOOOOOOOOOOOOOOOOOOOOOOOO",
"OOO o X... oo OOOOO.o....XX.oo.OOOXoXXXXoooXXXOOOOO.o....XX.oo.OOOO o X... oo OOOOOOOOOOOOOOOOOOOOOOOOOOOOOOOOOO",
"OOOO  X... oo OOOOO.o.oXXXX.oo.OOOXoXooooooXooXOOOO.o.oXXXX.oo.OOOOO  X... oo OOOOOOOOOOOOOOOOOOOOOOOOOOOOOOOOOO",
"OOOOO X....  OOOOOOO..oXXXXX..OOOOOXXXXXXXoXooXOOOOO..oXXXXX..OOOOOOO X....  OOOOOOOOOOOOOOOOOOOOOOOOOOOOOOOOOOO",
"OOOOO    .. OOOOOOOOO.....XX.OOOOOOOXXXOOXooXXOOOOOOO.....XX.OOOOOOOO    .. OOOOOOOOOOOOOOOOOOOOOOOOOOOOOOOOOOOO",
"OOOOO  OO   OOOOOOOOO...OO...OOOOOOOOOOOOOXXXOOOOOOOO...OO...OOOOOOOO  OO   OOOOOOOOOOOOOOOOOOOOOOOOOOOOOOOOOOOO",
"OOOOOOOOOO  OOOOOOOOOOOOOOO..OOOOOOOOOOOOOOOOOOOOOOOOOOOOOO..OOOOOOOOOOOOO  OOOOOOOOOOOOOOOOOOOOOOOOOOOOOOOOOOOO",
"OOOO       OOOOOOOOOOOOOOOOOOOOOOOOOOOOOOOOOOOOOOOOOOOOOOOOOOOOOOOOOOOOOOOOOOOOOOOOOOOOOOOOOOOOOOOOOOOOOOOOOOOOO",
"OOO XXoXooo OOOOOOOOOOOOOOOOOOOOOOOOOOOOOOOOOOOOOOOOOOOOOOOOOOOOOOOOOOOOOOOOOOOOOOOOOOOOOOOOOOOOOOOOOOOOOOOOOOOO",
"OO X  XXXXXo OOOOOOOOO       OOOOOOOOOOOOOOOOOOOOOOOOOOOOOOOOOOOOOOOOOOOOOOOOOOOOOOOOOOOOOOOOOOOOOOOOOOOOOOOOOOO",
"OO X o XXXXX OOOOOOOO XXoXooo OOOOOOOOOOOOOOOOOOOOOOOOOOOOOOOOOOOOOOOOOOOOOOOOOOOOOOOOOOOOOOOOOOOOOOOOOOOOOOOOOO",
"OO . o XX... OOOOOOO X  XXXXXo OOOOOOOOOOOOOOOOOOOOOOOOOOOOOOOOOOOOOOOOOOOOOOOOOOOOOOOOOOOOOOOOOOOOOOOOOOOOOOOOO",
"OO . o...o   OOOOOOO X o XXXXX OOOOOOOOOOOOOOOOOOOOOOOOOOOOOOOOOOOOOOOOOOOOOOOOOOOOOOOOOOOOOOOOOOOOOOOOOOOOOOOOO",
"OO ..oo  o X OOOOOOO . o XX... OOOOOOOO       OOOOOOOOOOOOOOOOOOOOOOOOOOOOOOOOOOOOOOOOOOOOOOOOOOOOOOOOOOOOOOOOOO",
"OO . oo Xooo OOOOOOO . o...ooo OOOOOOO XXoXooo OOOOOOOOOOOOOOOOOOOOOOOOOOOOOOOOOOOOOOOOOOOOOOOOOOOOOOOOOOOOOOOOO",
"OO . oooooo OOOOOOOO ..ooooo   OOOOOO X  XXXXXo OOOOOOOOOOOOOOOOOOOOOOOOOOOOOOOOOOOOOOOOOOOOOOOOOOOOOOOOOOOOOOOO",
"OOO   ..   o OOOOOOO . oo  ooo OOOOOO X o XXXXX OOOOOOOOOOOOOOOOOOOOOOOOOOOOOOOOOOOOOOOOOOOOOOOOOOOOOOOOOOOOOOOO",
"OO oo ...X o OOOOOOO . oooooo OOOOOOO . o XX... OOOOOOOOOOOOOOOOOOOOOOOOOOOOOOOOOOOOOOOOOOOOOOOOOOOOOOOOOOOOOOOO",
"OO oo ...X  OOOOOOO     ..   OOOOOOOO . o...ooo OOOOOOOOOOOOOOOOOOOOOOOOOOOOOOOOOOOOOOOOOOOOOOOOOOOOOOOOOOOOOOOO",
"OOO  ....X OOOOOOO oo ....X o OOOOOOO ..ooooo   OOOOOOOOOOOOOOOOOOOOOOOOOOOOOOOOOOOOOOOOOOOOOOOOOOOOOOOOOOOOOOOO",
"OOOO ..    OOOOOOO oo ....X o OOOO    . oo  ooo OOOOOOOOOOOOOOOOOOOOOOOOOOOOOOOOOOOOOOOOOOOOOOOOOOOOOOOOOOOOOOOO",
"OOOO   OO  OOOOOOOO   ..     OOOO oo  . oooooo OOOOOOOOOOOOOOOOOOOOOOOOOOOOOOOOOOOOOOOOOOOOOOOOOOOOOOOOOOOOOOOOO",
"OOOO  OOOOOOOOOOOOOO    O   OOOOO oo           OOOOOOOOOOOOOOOOOOOOOOOOOOOOOOOOOOOOOOOOOOOOOOOOOOOOOOOOOOOOOOOOO",
"OOOOO       OOOOOOOOOOOOOOOOOOOOOOOOOOOOOOOOOOOOOOOOOOOOOOOOOOOOOOOOOOOOOOOOOOOOOOOOOOOOOOOOOOOOOOOOOOOOOOOOOOOO",
"OOOO oooXoXX OOOOOOOOOOOOOOOOOOOOOOOOOOOOOOOOOOOOOOOOOOOOOOOOOOOOOOOOOOOOOOOOOOOOOOOOOOOOOOOOOOOOOOOOOOOOOOOOOOO",
"OOO oXXXXX  X OOOOO       OOOOOOOOOOOOOOOOOOOOOOOOOOOOOOOOOOOOOOOOOOOOOOOOOOOOOOOOOOOOOOOOOOOOOOOOOOOOOOOOOOOOOO",
"OOO XXXXX o X OOOO oooXoXX OOOOOOOOOOOOOOOOOOOOOOOOOOOOOOOOOOOOOOOOOOOOOOOOOOOOOOOOOOOOOOOOOOOOOOOOOOOOOOOOOOOOO",
"OOO ...XX o . OOO oXXXXX  X OOOOOOOOOOOOOOOOOOOOOOOOOOOOOOOOOOOOOOOOOOOOOOOOOOOOOOOOOOOOOOOOOOOOOOOOOOOOOOOOOOOO",
"OOO   o...o . OOO XXXXX o X OOOOOOOOOOOOOOOOOOOOOOOOOOOOOOOOOOOOOOOOOOOOOOOOOOOOOOOOOOOOOOOOOOOOOOOOOOOOOOOOOOOO",
"OOO X o  oo.. OOO ...XX o . OOOOOO       OOOOOOOOOOOOOOOOOOOOOOOOOOOOOOOOOOOOOOOOOOOOOOOOOOOOOOOOOOOOOOOOOOOOOOO",
"OOO oooX oo . OOO ooo...o . OOOOO oooXoXX OOOOOOOOOOOOOOOOOOOOOOOOOOOOOOOOOOOOOOOOOOOOOOOOOOOOOOOOOOOOOOOOOOOOOO",
"OOOO oooooo . OOO   ooooo.. OOOO oXXXXX  X OOOOOOOOOOOOOOOOOOOOOOOOOOOOOOOOOOOOOOOOOOOOOOOOOOOOOOOOOOOOOOOOOOOOO",
"OOO o   ..   OOOO ooo  oo . OOOO XXXXX o X OOOOOOOOOOOOOOOOOOOOOOOOOOOOOOOOOOOOOOOOOOOOOOOOOOOOOOOOOOOOOOOOOOOOO",
"OOO o X... oo OOOO oooooo . OOOO ...XX o . OOOOOOOOOOOOOOOOOOOOOOOOOOOOOOOOOOOOOOOOOOOOOOOOOOOOOOOOOOOOOOOOOOOOO",
"OOOO  X... oo OOOOO   ..     OOO ooo...o . OOOOOOOOOOOOOOOOOOOOOOOOOOOOOOOOOOOOOOOOOOOOOOOOOOOOOOOOOOOOOOOOOOOOO",
"OOOOO X....  OOOOO o X.... oo OO   ooooo.. OOOOOOOOOOOOOOOOOOOOOOOOOOOOOOOOOOOOOOOOOOOOOOOOOOOOOOOOOOOOOOOOOOOOO",
"OOOOO    .. OOOOOO o X.... oo OO ooo  oo .    OOOOOOOOOOOOOOOOOOOOOOOOOOOOOOOOOOOOOOOOOOOOOOOOOOOOOOOOOOOOOOOOOO",
"OOOOO  OO   OOOOOOO     ..   OOOO oooooo .  oo OOOOOOOOOOOOOOOOOOOOOOOOOOOOOOOOOOOOOOOOOOOOOOOOOOOOOOOOOOOOOOOOO",
"OOOOOOOOOO  OOOOOOOO   O    OOOOO           oo OOOOOOOOOOOOOOOOOOOOOOOOOOOOOOOOOOOOOOOOOOOOOOOOOOOOOOOOOOOOOOOOO",
"OOOOO      OOOOOOOOOOOOOOOOOOOOOOOOOOOOOOOOOOOOOOOOOOOOOOOOOOOOOOOOOOOOOOOOOOOOOOOOOOOOOOOOOOOOOOOOOOOOOOOOOOOOO",
"OOOO oooXoX OOOOOOOOOOOOOOOOOOOOOOOOOOOOOOOOOOOOOOOOOOOOOOOOOOOOOOOOOOOOOOOOOOOOOOOOOOOOOOOOOOOOOOOOOOOOOOOOOOOO",
"OOO XXXXXXX  OOOOOOOOO     OOOOOOOOOOOOOOOOOOOOOOOOOOOOOOOOOOOOOOOOOOOOOOOOOOOOOOOOOOOOOOOOOOOOOOOOOOOOOOOOOOOOO",
"OO o XXXXXX o OOOOOOO XXXXX OOOOOOOOOOO   OOOOOOOOOOOOOOOOOOOOOOOOOOOOOOOOOOOOOOOOOOOOOOOOOOOOOOOOOOOOOOOOOOOOOO",
"OO o .XXXX. o OOOOOO XXXXXX  OOOOOOOOO ... OOOOOOOOOOOOOOOOOOOOOOOOOOOOOOOOOOOOOOOOOOOOOOOOOOOOOOOOOOOOOOOOOOOOO",
"OO ooo....ooo OOOOO X XXXXX X OOOOOOO ....  OOOOOOOOOOOOoOOOOOOOOOOOOOOOOOOOOOOOOOOOOOOOOOOOOOOOOOOOOOOOOOOOOOOO",
"OO  o  oo  o. OOOOO X .XXX. X OOOOOO . ... . OOOOOOOOOOOOOOOOOOOOOOOOOOOOOOOOOOOOOOOOOOOOOOOOOOOOOOOOOOOOOOOOOOO",
"OO  o XooX o. OOOOO XXX...XXX OOOOOO .. . .. OOOOOOOOOOOoOOOOOOOOOOOOOOOOOOOOOOOOOOOOOOOOOOOOOOOOOOOOOOOOOOOOOOO",
"OO . oo  oo . OOOOO  X  X  X. OOOOOO . ... . OOOOOOOOOOOoOOOOOOOOOOOOOOOoOOOOOOOOOOOOOOOOOOOOOOOOOOOOOOOOOOOOOOO",
"OO    X  .    OOOOO . XX XX . OOOOOO   ..    OOOOOOOoOoooooOoOOOOOOOOOOoooOOOOOOOOOOOOOOoOOOOOOOOOOOOOOOOOOOOOOO",
"OO oo X.... oo OOOO    X .    OOOOOO . ... . OOOOOOOOOOOoOOOOOOOOOOOOOOOoOOOOOOOOOOOOOOOOOOOOOOOOOOOOOOOOOOOOOOO",
"OO oo X.... oo OOOO XX X... XX OOOOOO  ...  OOOOOOOOOOOOoOOOOOOOOOOOOOOOOOOOOOOOOOOOOOOOOOOOOOOOOOOOOOOOOOOOOOOO",
"OOO   X....   OOOOO XX X... XX OOOOOOO     OOOOOOOOOOOOOOOOOOOOOOOOOOOOOOOOOOOOOOOOOOOOOOOOOOOOOOOOOOOOOOOOOOOOO",
"OOOO ..   . OOOOOOOO          OOOOOOOOO O OOOOOOOOOOOOOOoOOOOOOOOOOOOOOOOOOOOOOOOOOOOOOOOOOOOOOOOOOOOOOOOOOOOOOO",
"OOOO   OO   OOOOOOOOOO  OO  OOOOOOOOOOOOOOOOOOOOOOOOOOOOOOOOOOOOOOOOOOOOOOOOOOOOOOOOOOOOOOOOOOOOOOOOOOOOOOOOOOOO",
"OOOOO  OO  OOOOOOOOOOOOOOOOOOOOOOOOOOOOOOOOOOOOOOOOOOOOOOOOOOOOOOOOOOOOOOOOOOOOOOOOOOOOOOOOOOOOOOOOOOOOOOOOOOOOO"
};
