/* XPM */
static char *result[] = {
/* columns rows colors chars-per-pixel */
"64 128 5 1 ",
"  c #584422",
". c #5E8549",
"X c #78A46A",
"o c #D4D29B",
"O c None",
/* pixels */
"OOOOOOOOOOOOOOOOOOOOOOOOOOOOOOOOOOOOOOOOOOOOOOOOOOOOOOOOOOOOOOOO",
"OOOOOOOOOOOOOOOOOOOOOOOOOOOOOOOOOOOOOOOOOOOOOOOOOOOOOOOOOOOOOOOO",
"OOOOOOOOOOOOOOOOOOOOOOOOOOOOOOOOOOOOOOOOOOOOOOOOOOOOOOOOOOOOOOOO",
"OOOOOOOOOOOOOOOOOOOOOOOOOOOOOOOOOOOOOOOOOOOOOOOOOOOOOOOOOOOOOOOO",
"OOOOOOOOOOOOOOOOOOOOOOOOOOOOOOOOOOOOOOOOOOOOOOOOOOOOOOOOOOOOOOOO",
"OOOOOOOOOOOOOOOOOOOOOOOOOOOOOOOOOOOOOOOOOOOOOOOOOOOOOOOOOOOOOOOO",
"OOOOOOO  OOOOOOOOOOOOOO OOOOOOOOOOOOOOO  OOOOOOOOOOOOOOO OOOOOOO",
"OOOOOO oX OOOOOOOOOOOO o OOOOOOOOOOOOO oX OOOOOOOOOOOOO o OOOOOO",
"OOOOOO XX OOOOOOOOOOOO X OOOOOOOOOOOOO XX OOOOOOOOOOOOO X OOOOOO",
"OOOOOOO  OOOOOOOOOOOOOO OOOOOOOOOOOOOOO  OOOOOOOOOOOOOOO OOOOOOO",
"OOOOOOOOOOOOOOOOOOOOOOOOOOOOOOOOOOOOOOOOOOOOOOOOOOOOOOOOOOOOOOOO",
"OOOOOOOOOOOOOOOOOOOOOOOOOOOOOOOOOOOOOOOOOOOOOOOOOOOOOOOOOOOOOOOO",
"OOOOOOOOOOOOOOOOOOOOOOOOOOOOOOOOOOOOOOOOOOOOOOOOOOOOOOOOOOOOOOOO",
"OOOOOOOOOOOOOOOOOOOOOOOOOOOOOOOOOOOOOOOOOOOOOOOOOOOOOOOOOOOOOOOO",
"OOOOOOOOOOOOOOOOOOOOOOOOOOOOOOOOOOOOOOOOOOOOOOOOOOOOOOOOOOOOOOOO",
"OOOOOOOOOOOOOOOOOOOOOOOOOOOOOOOOOOOOOOOOOOOOOOOOOOOOOOOOOOOOOOOO",
"OOOOOOOOOOOOOOOOOOOOOOOOOOOOOOOOOOOOOOOOOOOOOOOOOOOOOOOOOOOOOOOO",
"OOOOOOOOOOOOOOOOOOOOOOOOOOOOOOOOOOOOOOOOOOOOOOOOOOOOOOOOOOOOOOOO",
"OOOOOOOOOOOOOOOOOOOOOOOOOOOOOOOOOOOOOOOOOOOOOOOOOOOOOOOOOOOOOOOO",
"OOOOOOOOOOOOOOOOOOOOOOOOOOOOOOOOOOOOOOOOO.   OOOOOOOOOOOOOOOOOOO",
"OOOOOOOOOOOOOOOOOOOOOOOOO    OOOOOOOOOOO.ooXX OOOOOOOOOOO....OOO",
"OOOOOOOOO    OOOOOOOOOOO XXXX OOOO    ...o... OOOOOOOOOO Xooo.OO",
"OOOOOOOO XXXX OOOO....   X  . OOOO XXXoooX. X OOOO       X  o.OO",
"OO       X  . OOOO.ooooXXX  X OOOO X X   X. o.OOOO XXXXXXX  o.OO",
"OO XXXXXXX  X OOOO.o.o.. X  . OOOO     O Xooo.OOOO X X   X  ..OO",
"OO X X   X  . OOOO . . O o... OOOOOOOOOOO ...OOOOO     O X..X OO",
"OO     O X... OOOOOOOOOOO.   OOOOOOOOOOOOOOOOOOOOOOOOOOOO    OOO",
"OOOOOOOOO    OOOOOOOOOOOOOOOOOOOOOOOOOOOOOOOOOOOOOOOOOOOOOOOOOOO",
"OOOOOOOOOOOOOOOOOOOOOOOOOOOOOOOOOOOOOOOOOOOOOOOOOOOOOOOOOOOOOOOO",
"OOOOOOOOOOOOOOOOOOOOOOOOOOOOOOOOOOOOOOOOOOOOOOOOOOOOOOOOOOOOOOOO",
"OOOOOOOOOOOOOOOOOOOOOOOOOOOOOOOOOOOOOOOOOOOOOOOOOOOOOOOOOOOOOOOO",
"OOOOOOOOOOOOOOOOOOOOOOOOOOOOOOOOOOOOOOOOOOOOOOOOOOOOOOOOOOOOOOOO",
"OOOOOOOOOOOOOOOOOOOOOOOOOOOOOOOOOOOOOOOOOOOOOOOOOOOOOOOOOOOOOOOO",
"OOOOOOOOOOOOOOOOOOOOOOOOOOOOOOOOOOOOOOO  OOOOOOOOOOOOOOOOOOOOOOO",
"OOOOOOOOOOOOOOOOOOOOOOO  OOOOOOOOOOOOO .. OOOOOOOOOOOOO .OOOOOOO",
"OOOOOOO  OOOOOOOOOOOOO .. OOOOOOOOOOO      OOOOOOOOOOO XX.OOOOOO",
"OOOOOO .. OOOOOOOOOOO      OOOOOOOOOO X..X OOOOOOOOOO     .OOOOO",
"OOOOO      OOOOOOOOOO X..X OOOOOOOOOOO... OOOOOOOOOOO X.Xo.OOOOO",
"OOOOO X..X OOOOOOOOOOO .. OOOOOOOOOOO.ooXX OOOOOOOOOOO .. OOOOOO",
"OOOOOO .. OOOOOOOOOOO XXXX OOOOOOOOO XoXX.X OOOOOOOOO XXXo.OOOOO",
"OOOOO oXXX OOOOOOOOO.X....X OOOOOOOO X.XXXo.OOOOOOOO X....o.OOOO",
"OOOO o....X OOOOOOOO.o....X OOOOOOOO X..XXo.OOOOOOOO X....X OOOO",
"OOOO o....X OOOOOOOO.oX...X OOOOOOOOO XXXo.OOOOOOOOO X....X OOOO",
"OOOO X....X OOOOOOOOO.ooXX OOOOOOOOOOO  ..OOOOOOOOOOO XXXX OOOOO",
"OOOOO oXXX OOOOOOOOOOO..  OOOOOOOOOOOOOOOOOOOOOOOOOOOO    OOOOOO",
"OOOOOO    OOOOOOOOOOOOOOOOOOOOOOOOOOOOOOOOOOOOOOOOOOOOOOOOOOOOOO",
"OOOOOOOOOOOOOOOOOOOOOOOOOOOOOOOOOOOOOOOOOOOOOOOOOOOOOOOOOOOOOOOO",
"OOOOOOOOOOOOOOOOOOOOOOOOOOOOOOOOOOOOOOOOOOOOOOOOOOOOOOOOOOOOOOOO",
"OOOOOOOOOOOOOOOOOOOOOOOOOOOOOOOOOOOOOOOOOOOOOOOOOOOOOOOOOOOOOOOO",
"OOOOOOOOOOOOOOOOOOOOOOOOOOOOOOOOOOOOOO OOOOOOOOOOOOOOOOOOOOOOOOO",
"OOOOOOOOOOOOOOOOOOOOOO OOOOOOOOOOOOOOOO OOOOOOOOOOOOOO OOOOOOOOO",
"OOOOOO OOOOOOOOOOOOOOOO OOOOOOOOOOOOOO   OOOOOOOOOOOOOO OOOOOOOO",
"OOOOOOO OOOOOOOOOOOOOO   OOOOOOOOOOOO.o o OOOOOOOOOOOO. .OOOOOOO",
"OOOOOO   OOOOOOOOOOOO o o OOOOOOOOOO..ooo  OOOOOOOOOO.o o.OOOOOO",
"OOOOO o o OOOOOOOOOO  ooo  OOOOOOOO.oo.  .X OOOOOOOO  ooo..OOOOO",
"OOOO  ooo  OOOOOOOO oo   .X OOOOOOO Xooo.XX OOOOOOO oo  .oo.OOOO",
"OOO oo   .X OOOOOOO.XX...XX OOOOOOO oXoooX. OOOOOOO XX..ooX.OOOO",
"OOO XX...XX OOOOOOO.oXXXXX. OOOOOOO XXXooo. OOOOOOO oXXXXoX.OOOO",
"OOO oXXXXX. OOOOOOO.ooXXXX. OOOOOOO .XXXoXX.OOOOOOO XXXXXXX.OOOO",
"OOO XXXXXX. OOOOOOO oooXX.. OOOOOOOO ....X.OOOOOOOO .XXXX.. OOOO",
"OOO .XXXX.. OOOOOOOO XXX.. OOOOOOOOOO     OOOOOOOOOO ..... OOOOO",
"OOOO ..... OOOOOOOOOO.... OOOOOOOOOOOOOOOOOOOOOOOOOOO     OOOOOO",
"OOOOO     OOOOOOOOOOOOOOOOOOOOOOOOOOOOOOOOOOOOOOOOOOOOOOOOOOOOOO",
"OOOOOOOOOOOOOOOOOOOOOOOOOOOOOOOOOOOOOOOOOOOOOOOOOOOOOOOOOOOOOOOO",
"OOOOOOOOOOOOOOOOOOOOOOOOOOOOOOOOOOOOOOOOOOOOOOOOOOOOOOOOOOOOOOOO",
"OOOOOOOOOOOOOOOOOOOOOOOOOOOOOOOOOOOOOOOOOOOOOOOOOOOOOOOOOOOOOOOO",
"OOOOOOOOOOOOOOOOOOOOOOOOOOOOOOOOOOOOOOOOOOOOOOOOOOOOOOOOOOOOOOOO",
"OOOOOOOOOOOOOOOOOOOOOOOOOOOOOOOOOOOOO..O  OOOOOOOOOOOOOOOOOOOOOO",
"OOOOOOOOOOOOOOOOOOOOO  O  OOOOOOOOOO.oo X. OOOOOOOOOO  O..OOOOOO",
"OOOOO  O  OOOOOOOOOO oo X. OOOOOOOOO oooX. OOOOOOOOO oo.oo.OOOOO",
"OOOO oo X. OOOOOOOOO.oXXX. OOOOOOOOO XXooo OOOOOOOOO oXXXo.OOOOO",
"OOOO oXXX. OOOOOOOOO.ooX.. OOOOOOOOOO ..o.OOOOOOOOOO XXX.. OOOOO",
"OOOO XXX.. OOOOOOOOOO oo. OOOOOOOOOOOO  .OOOOOOOOOOOO ... OOOOOO",
"OOOOO ... OOOOOOOOOOOO.. OOOOOOOOOOOOOOOOOOOOOOOOOOOOO   OOOOOOO",
"OOOOOO   OOOOOOOOOOOOOOOOOOOOOOOOOOOOOOOOOOOOOOOOOOOOOOOOOOOOOOO",
"OOOOOOOOOOOOOOOOOOOOOOOOOOOOOOOOOOOOOOOOOOOOOOOOOOOOOOOOOOOOOOOO",
"OOOOOOOOOOOOOOOOOOOOOOOOOOOOOOOOOOOOOOOOOOOOOOOOOOOOOOOOOOOOOOOO",
"OOOOOOOOOOOOOOOOOOOOOOOOOOOOOOOOOOOOOOOOOOOOOOOOOOOOOOOOOOOOOOOO",
"OOOOOOOOOOOOOOOOOOOOOOOOOOOOOOOOOOOOOOOOOOOOOOOOOOOOOOOOOOOOOOOO",
"OOOOOOOOOOOOOOOOOOOOOOOOOOOOOOOOOOOOOOOOOOOOOOOOOOOOOOOOOOOOOOOO",
"OOOOOOOOOOOOOOOOOOOOOOOOOOOOOOOOOOOOOOOOOOOOOOOOOOOOOOOOOOOOOOOO",
"OOOOOOOOOOOOOOOOOOOOOOOOOOOOOOOOOOOOOOOOOOOOOOOOOOOOOOOOOOOOOOOO",
"OOOOOOOOOOOOOOOOOOOOOOOOOOOOOOOOOOOOOOOOOOOOOOOOOOOOOOOOOOOOOOOO",
"OOOOOOOOOOOOOOOOOOOOOOOOOOOOOOOOOOOOOOOOOOOOOOOOOOOOOOOOOOOOOOOO",
"OOOOOOOOOOOOOOOOOOOOOOOOOOOOOOOOOOOOO. O.OOOOOOOOOOOOOOOOOOOOOOO",
"OOOOOOOOOOOOOOOOOOOOO  O.OOOOOOOOOOO.oo OO.OOOOOOOOOO .O.OOOOOOO",
"OOOOO  O.OOOOOOOOOOO oo OO.OOOOOOOOO oo.OOOOOOOOOOOO oo.OO.OOOOO",
"OOOO oo OO.OOOOOOOOO oX OOOOOOOOOOOO XX.OO.OOOOOOOOO oX OOOOOOOO",
"OOOO oX OOOOOOOOOOOO.oX OO.OOOOOOOOOO . OOOOOOOOOOOO XX OO.OOOOO",
"OOOO XX OO.OOOOOOOOOO.o OOOOOOOOOOOOOO  .OOOOOOOOOOOO . OOOOOOOO",
"OOOOO . OOOOOOOOOOOOOO. .OOOOOOOOOOOOOOOOOOOOOOOOOOOOO  .OOOOOOO",
"OOOOOO  .OOOOOOOOOOOOOOOOOOOOOOOOOOOOOOOOOOOOOOOOOOOOOOOOOOOOOOO",
"OOOOOOOOOOOOOOOOOOOOOOOOOOOOOOOOOOOOOOOOOOOOOOOOOOOOOOOOOOOOOOOO",
"OOOOOOOOOOOOOOOOOOOOOOOOOOOOOOOOOOOOOOOOOOOOOOOOOOOOOOOOOOOOOOOO",
"OOOOOOOOOOOOOOOOOOOOOOOOOOOOOOOOOOOOOOOOOOOOOOOOOOOOOOOOOOOOOOOO",
"OOOOOOOOOOOOOOOOOOOOOOOOOOOOOOOOOOOOOOOOOOOOOOOOOOOOOOOOOOOOOOOO",
"OOOOOOOOOOOOOOOOOOOOOOOOOOOOOOOOOOOOOOOOOOOOOOOOOOOOOOOOOOOOOOOO",
"OOOOOOOOOOOOOOOOOOOOOOOOOOOOOOOOOOOOOOOOOOOOOOOOOOOOOOOOOOOOOOOO",
"OOOOOOOOOOOOOOOOOOOOOOOOOOOOOOOOOOOOOOOOOOOOOOOOOOOOOOOOOOOOOOOO",
"OOOOOOOOOOOOOOOOOOOOOOOOOOOOOOOOOOOO        OOOOOOOOOOOOOOOOOOOO",
"OOOOOOOOOOOOOOOOOOOO        OOOOOOO oooXXXX. OOOOOOO        OOOO",
"OOOO        OOOOOOO ooXXXXX. OOOOO XooooXXX.. OOOOO XoXXXooo OOO",
"OOO XoXXXXX. OOOOO oooXXXXX.. OOOO XXooooXX.. OOOO XXoXXXXooo OO",
"OO XXoXXXXX.. OOOO ooooXoXX.. OOOO Xo.ooo..X. OOOO XXooXoXXoo OO",
"OO XXooXoXX.. OOOO oo......X. OOOO o..ooo...X OOOO Xo......oo OO",
"OO Xo......X. OOOO ooo......X OOOO            OOOO o........o OO",
"OO o........X OOOO            OOOOOOOOOOOOOOOOOOOO            OO",
"OO            OOOOOOOOOOOOOOOOOOOOOOOOOOOOOOOOOOOOOOOOOOOOOOOOOO",
"OOOOOOOOOOOOOOOOOOOOOOOOOOOOOOOOOOOOOOOOOOOOOOOOOOOOOOOOOOOOOOOO",
"OOOOOOOOOOOOOOOOOOOOOOOOOOOOOOOOOOOOOOOOOOOOOOOOOOOOOOOOOOOOOOOO",
"OOOOOOOOOOOOOOOOOOOOOOOOOOOOOOOOOOOOOOOOOOOOOOOOOOOOOOOOOOOOOOOO",
"OOOOOOOOOOOOOOOOOOOOOOOOOOOOOOOOOOOOOOOOOOOOOOOOOOOOOOOOOOOOOOOO",
"OOOOOOOOOOOOOOOOOOOOOOOOOOOOOOOOOOOOOOOOOOOOOOOOOOOOOOOOOOOOOOOO",
"OOOOOOOOOOOOOOOOOOOOOOOOOOOOOOOOOOOOOOOOOOOOOOOOOOOOOOOOOOOOOOOO",
"OOOOOOOOOOOOOOOOOOOOOOOOOOOOOOOOOOOOOOOOOOOOOOOOOOOOOOOOOOOOOOOO",
"OOOOOOOOOOOOOOOOOOOOOOOOOOOOOOOOOOOOOOOOOOOOOOOOOOOOOOOOOOOOOOOO",
"OOOOOOOOOOOOOOOOOOOOOOOOOOOOOOOOOOOOOOOOO  OOOOOOOOOOOOOOOOOOOOO",
"OOOOOOOOOOOOOOOOOOOOOOOOO  OOOOOOOOOOOOO oX OOOOOOOOOOOOO  OOOOO",
"OOOOOOOOO  OOOOOOOOOOOOO oX OOOOOOOOOO  oX. OOOOOOOOOOOO oo OOOO",
"OOOOOOOO oX OOOOOOOOOO  oX. OOOOOOOOO oooo. OOOOOOOOOO  ooo OOOO",
"OOOOOO  oX. OOOOOOOOO oXX.. OOOOOOOOO ..oo OOOOOOOOOO oXX.o OOOO",
"OOOOO oXX.. OOOOOOOOO oo.. OOOOOOOOOOO    OOOOOOOOOOO .... OOOOO",
"OOOOO .... OOOOOOOOOOO    OOOOOOOOOOOOOOOOOOOOOOOOOOOO    OOOOOO",
"OOOOOO    OOOOOOOOOOOOOOOOOOOOOOOOOOOOOOOOOOOOOOOOOOOOOOOOOOOOOO",
"OOOOOOOOOOOOOOOOOOOOOOOOOOOOOOOOOOOOOOOOOOOOOOOOOOOOOOOOOOOOOOOO",
"OOOOOOOOOOOOOOOOOOOOOOOOOOOOOOOOOOOOOOOOOOOOOOOOOOOOOOOOOOOOOOOO",
"OOOOOOOOOOOOOOOOOOOOOOOOOOOOOOOOOOOOOOOOOOOOOOOOOOOOOOOOOOOOOOOO",
"OOOOOOOOOOOOOOOOOOOOOOOOOOOOOOOOOOOOOOOOOOOOOOOOOOOOOOOOOOOOOOOO"
};
