/* XPM */
static char *result[] = {
/* columns rows colors chars-per-pixel */
"64 96 5 1 ",
"  c #584422",
". c #5E8549",
"X c #78A46A",
"o c #D4D29B",
"O c None",
/* pixels */
"OOOOOOOOOOOOOOOOOOOOOOOOOOOOOOOOOOOOOOOOOOOOOOOOOOOOOOOOOOOOOOOO",
"OOOOOOOO  OOOOOOOOOOOOOOOOOOOOOOOOOOOOOOOOOOOOOOOOOOOOOOOOOOOOOO",
"OOOOOOO oX OOOOOOOOOOOOOOOOOOOOOOOOOOOOOOOOOOOOOOOOOOOOOOOOOOOOO",
"OOOOOOOO . OOOOOOOOOOOOOOOO OOOOOOOOOOOOOO OOOOOOOOOOOOOOOOOOOOO",
"O    OOO . OOOOOOOOOOOOO O X OOOOOOOOOOOO   OOOOOOOOOOOOOOOOOOOO",
" ooXX OOO   OOOOOOOOOOO X X.. OOOOOOOOOO   X OOOOOOOOOOOOOOOOOOO",
"O ...X O   X OOOOOOOOOO ....o OOOO    O X X.. OOOOOOOOOOOOOOOOOO",
"OO ...X X X.. OOOOOOO  ...o.. OOO ooXX  ....o OOOOOOOOOOOOOOOOOO",
"OO .  ......o OOOOOO oX ....  OO X........o.. OOOOOOOOOOOOOOOOOO",
"OOO OO  ..o.. OOOOO o..     . OOO  .... .... OOOOOOOOOOOOOOOOOOO",
"OOOOOOO .... OOOOOO .. OOOOO . OOOO .  O    OOOOOOOOOOOOOOOOOOOO",
"OOOOOOOO    OOOOOOO X. OOOO .. OOOOO OOOOOOOOOOOOOOOOOOOOOOOOOOO",
"OOOOOOOOOOOOOOOOOOO ... OOOO . OOOOOOOOOOOOOOOOOOOOOOOOOOOOOOOOO",
"OOOOOOOOOOOOOOOOOOOO . OOOOOO OOOOOOOOOOOOOOOOOOOOOOOOOOOOOOOOOO",
"OOOOOOOOOOOOOOOOOOOO . OOOOOOOOOOOOOOOOOOOOOOOOOOOOOOOOOOOOOOOOO",
"OOOOOOOOOOOOOOOOOOOOO OOOOOOOOOOOOOOOOOOOOOOOOOOOOOOOOOOOOOOOOOO",
"OOOOOOOOOOOOOOOOOOOOOOOOOOOOOOOOOOOOOOOOOOOOOOOOOOOOOOOOOOOOOOOO",
"OOOOOO  OOOOOOOOOOOOOOOOOOOOOOOOOOOOOOOOOOOOOOOOOOOOOOOOOOOOOOOO",
"OOOOO Xo OOOOOOOOOOOOOOOOOOOOOOOOOOOOOOOOOOOOOOOOOOOOOOOOOOOOOOO",
"OOOOO . OOOOOOOOOOOO OOOOOOOOOOOOOOOO OOOOOOOOOOOOOOOOOOOOOOOOOO",
"OOOOO . OOO    OOOO X O OOOOOOOOOOOO   OOOOOOOOOOOOOOOOOOOOOOOOO",
"OOOO   OOO XXoo OO ..X X OOOOOOOOOO X   OOOOOOOOOOOOOOOOOOOOOOOO",
"OOO X   O X... OOO o.... OOOOOOOOO ..X X O    OOOOOOOOOOOOOOOOOO",
"OO ..X X X... OOOO ..o...  OOOOOOO o....  XXoo OOOOOOOOOOOOOOOOO",
"OO o......  . OOOO  .... Xo OOOOOO ..o........X OOOOOOOOOOOOOOOO",
"OO ..o..  OO OOOOO .     ..o OOOOOO .... ....  OOOOOOOOOOOOOOOOO",
"OOO .... OOOOOOOO . OOOOO .. OOOOOOO    O  . OOOOOOOOOOOOOOOOOOO",
"OOOO    OOOOOOOOO .. OOOO .X OOOOOOOOOOOOOO OOOOOOOOOOOOOOOOOOOO",
"OOOOOOOOOOOOOOOOO . OOOO ... OOOOOOOOOOOOOOOOOOOOOOOOOOOOOOOOOOO",
"OOOOOOOOOOOOOOOOOO OOOOOO . OOOOOOOOOOOOOOOOOOOOOOOOOOOOOOOOOOOO",
"OOOOOOOOOOOOOOOOOOOOOOOOO . OOOOOOOOOOOOOOOOOOOOOOOOOOOOOOOOOOOO",
"OOOOOOOOOOOOOOOOOOOOOOOOOO OOOOOOOOOOOOOOOOOOOOOOOOOOOOOOOOOOOOO",
"OOOOOOOOOOOOOOOOOOOOOOOOOOOOOOOOOOOOOOOOOOOOOOOOOOOOOOOOOOOOOOOO",
"OOOOOOOOOOOOOOOOOOOOOOOOOOOOOOOOOOOOOOOOOOOOOOOOOOOOOOOOOOOOOOOO",
"OOOOOOO OOOOOOOOOOOOOOOOOOOOOOOOOOOOOOOOOOOOOOOOOOOOOOOOOOOOOOOO",
"OOOO O X OOOOOOOOOOOOO  OOOOOOOOOOOOOOOOOOOOOOOOOOOOOOOOOOOOOOOO",
"OOO X X.. OOOOOOOOOOOO o  OOOOOOOOOOOOOOOOOOOOOOOOOOOOOOOOOOOOOO",
"OOO ....o OOOOOOOOOOOO .XX O OOOOOOOOOOOOOOOOOOOOOOOOOOOOOOOOOOO",
"OO ..oo.. OOOOOOO     O .   X OOOOOOOOOOOOOOOOOOOOOOOOOOOOOOOOOO",
"OOO .... X OOOOO oooXX   X X.. OOOOOOOOOOOOOOOOOOOOOOOOOOOOOOOOO",
"OO o    O o OOOOO ...........o OOOOOOOOOOOOOOOOOOOOOOOOOOOOOOOOO",
"O o.. OOO .X OOOOO ...  ..oo.. OOOOOOOOOOOOOOOOOOOOOOOOOOOOOOOOO",
"O .. OOOOO . OOOOOO . OO .... OOOOOOOOOOOOOOOOOOOOOOOOOOOOOOOOOO",
"O X. OOOO .. OOOOOOO OOOO    OOOOOOOOOOOOOOOOOOOOOOOOOOOOOOOOOOO",
"O ... OOOO . OOOOOOOOOOOOOOOOOOOOOOOOOOOOOOOOOOOOOOOOOOOOOOOOOOO",
"OO . OOOOOO OOOOOOOOOOOOOOOOOOOOOOOOOOOOOOOOOOOOOOOOOOOOOOOOOOOO",
"OOO . OOOOOOOOOOOOOOOOOOOOOOOOOOOOOOOOOOOOOOOOOOOOOOOOOOOOOOOOOO",
"OOOO  OOOOOOOOOOOOOOOOOOOOOOOOOOOOOOOOOOOOOOOOOOOOOOOOOOOOOOOOOO",
"OOOOOOOOOOOOOOOOOOOOOOOOOOOOOOOOOOOOOOOOOOOOOOOOOOOOOOOOOOOOOOOO",
"OOOOOOOOOOOOOOOOOOOOOOOOOOOOOOOOOOOOOOOOOOOOOOOOOOOOOOOOOOOOOOOO",
"OOOOOOOO OOOOOOOOOOOOOOOOOOOOOOOOOOOOOOOOOOOOOOOOOOOOOOOOOOOOOOO",
"OOOOOOO X O OOOOOOOOOOOO  OOOOOOOOOOOOOOOOOOOOOOOOOOOOOOOOOOOOOO",
"OOOOOO ..X X OOOOOOOOO  o OOOOOOOOOOOOOOOOOOOOOOOOOOOOOOOOOOOOOO",
"OOOOOO o.... OOOOOO O XX. OOOOOOOOOOOOOOOOOOOOOOOOOOOOOOOOOOOOOO",
"OOOOOO ..oo.. OOOO X   . O     OOOOOOOOOOOOOOOOOOOOOOOOOOOOOOOOO",
"OOOOO X .... OOOO ..X X   XXooo OOOOOOOOOOOOOOOOOOOOOOOOOOOOOOOO",
"OOOO o O    o OOO o........... OOOOOOOOOOOOOOOOOOOOOOOOOOOOOOOOO",
"OOO X. OOO ..o OO ..oo..  ... OOOOOOOOOOOOOOOOOOOOOOOOOOOOOOOOOO",
"OOO . OOOOO .. OOO .... OO . OOOOOOOOOOOOOOOOOOOOOOOOOOOOOOOOOOO",
"OOO .. OOOO .X OOOO    OOOO OOOOOOOOOOOOOOOOOOOOOOOOOOOOOOOOOOOO",
"OOO . OOOO ... OOOOOOOOOOOOOOOOOOOOOOOOOOOOOOOOOOOOOOOOOOOOOOOOO",
"OOOO OOOOOO . OOOOOOOOOOOOOOOOOOOOOOOOOOOOOOOOOOOOOOOOOOOOOOOOOO",
"OOOOOOOOOO . OOOOOOOOOOOOOOOOOOOOOOOOOOOOOOOOOOOOOOOOOOOOOOOOOOO",
"OOOOOOOOOO  OOOOOOOOOOOOOOOOOOOOOOOOOOOOOOOOOOOOOOOOOOOOOOOOOOOO",
"OOOOOOOOOOOOOOOOOOOOOOOOOOOOOOOOOOOOOOOOOOOOOOOOOOOOOOOOOOOOOOOO",
"OOOOOOOOOOOOOOOOOOOOOOOOOOOOOOOOOOOOOOOOOOOOOOOOOOOOOOOOOOOOOOOO",
"OOOOOOOOOOOOOOOOOOOOOOOOOOOOOOOOOOOOOOOOOOOOOOOOOOOOOOOOOOOOOOOO",
"OOOOOOOOOO OOOOOOOOOOOOOOOOOOOOOOOOOOOOOOOOOOOOOOOOOOOOOOOOOOOOO",
"OOOOOOO O X OOOOOOOOOOOOOO.OOOOOOOOOOOOOOOOXOOOOOOOOOOOOOO.OOOOO",
"OOOOOO X X.. OOOOOOOOO.OO.o.OOOOOOOOOOXXOOXoXOOOOOOOOO.OO.o.OOOO",
"OOOOOO ....  OOOOOOOO.o..oXX.OOOOOOOOXoXXXoooXOOOOOOO.o..oXX.OOO",
"OOOOO .. ... OOOOOOOO.XXXXX..OOOOOOOOXoooooooXOOOOOOO.XXXXX..OOO",
"OOOO o .... . OOOOOO.XX..XXX.OOOOOOOXooooooooXOOOOOO.XX..XXX.OOO",
"OOO o.      . OOOOO.o.XXXXX.X.OOOOOXoXooooooXoXOOOO.o.XXXXX.X.OO",
"OOO .. OOOOO . OOO.oX.......X.OOOOXooXXXXXXXXXoXOO.oX.......X.OO",
"OOO X. OOOO .. OOO.XX.OOOOO..X.OOOXoooXOOOOOOXoXOO.XX.OOOOO..X.O",
"OOO ... OOOO . OOO.XXX.OOOOO.X.OOOOXoXOOOOOOOOXOOO.XXX.OOOOO.X.O",
"OOOO . OOOOOO OOOOO.X.OOOOOOO.OOOOOXoXOOOOOOOOOOOOO.X.OOOOOOO.OO",
"OOOO . OOOOOOOOOOOO.X.OOOOOOOOOOOOOOXOOOOOOOOOOOOOO.X.OOOOOOOOOO",
"OOOOO OOOOOOOOOOOOOO.OOOOOOOOOOOOOOOOOOOOOOOOOOOOOOO.OOOOOOOOOOO",
"OOOOOOOOOOOOOOOOOOOOOOOOOOOOOOOOOOOOOOOOOOOOOOOOOOOOOOOOOOOOOOOO",
"OOOOOOOOOOOOOOOOOOOOOOOOOOOOOOOOOOOOOOOOOOOOOOOOOOOOOOOOOOOOOOOO",
"OOOOOOOOOOOOOOOOOOOOOOOOOOOOOOOOOOOOOOOOOOOOOOOOOOOOOOOOOOOOOOOO",
"OOOOO OOOOOOOOOOOOOOOOOOOOOOOOOOOOOOOOOOOOOOOOOOOOOOOOOOOOOOOOOO",
"OOOO X O OOOOOOOOOOOO.OOOOOOOOOOOOOOXOOOOOOOOOOOOOOOO.OOOOOOOOOO",
"OOO ..X X OOOOOOOOOO.o.OO.OOOOOOOOOXoXOOXXOOOOOOOOOO.o.OO.OOOOOO",
"OOO  .... OOOOOOOOO.XXo..o.OOOOOOOXoooXXXoXOOOOOOOO.XXo..o.OOOOO",
"OOO ... .. OOOOOOOO..XXXXX.OOOOOOOXoooooooXOOOOOOOO..XXXXX.OOOOO",
"OO . .... o OOOOOOO.XXX..XX.OOOOOOXooooooooXOOOOOOO.XXX..XX.OOOO",
"OO .      .o OOOOO.X.XXXXX.o.OOOOXoXooooooXoXOOOOO.X.XXXXX.o.OOO",
"O . OOOOO .. OOOOO.X.......Xo.OOXoXXXXXXXXXooXOOOO.X.......Xo.OO",
"O .. OOOO .X OOOO.X..OOOOO.XX.OOXoXOOOOOOXoooXOOO.X..OOOOO.XX.OO",
"O . OOOO ... OOOO.X.OOOOO.XXX.OOOXOOOOOOOOXoXOOOO.X.OOOOO.XXX.OO",
"OO OOOOOO . OOOOOO.OOOOOOO.X.OOOOOOOOOOOOOXoXOOOOO.OOOOOOO.X.OOO",
"OOOOOOOOO . OOOOOOOOOOOOOO.X.OOOOOOOOOOOOOOXOOOOOOOOOOOOOO.X.OOO",
"OOOOOOOOOO OOOOOOOOOOOOOOOO.OOOOOOOOOOOOOOOOOOOOOOOOOOOOOOO.OOOO"
};
