/* XPM */
static char *result[] = {
/* columns rows colors chars-per-pixel */
"32 32 35 1 ",
"  c black",
". c #271B1A",
"X c #2F1F1E",
"o c #222222",
"O c #2D2D2D",
"+ c #342423",
"@ c #382422",
"# c #3A2827",
"$ c #36302F",
"% c #412D2B",
"& c #47312F",
"* c #4D3533",
"= c #563A37",
"- c #5F3F3C",
"; c gray27",
": c #4B4B4B",
"> c gray32",
", c #585251",
"< c #5F5756",
"1 c #5F5958",
"2 c #674340",
"3 c #704844",
"4 c #655B5A",
"5 c #6B5F5E",
"6 c #676767",
"7 c #746462",
"8 c #7D6967",
"9 c #747070",
"0 c #7A7474",
"q c #836F6D",
"w c #8A7674",
"e c #898989",
"r c #979797",
"t c #A4A4A4",
"y c None",
/* pixels */
"yyy                         yyyy",
"yy O;;;;;;;;;;;;;;;;;;;;;;;O yyy",
"y  ;eeeeeeeeeeeeeeeeeeeeeee;  yy",
" o;6e9<<<4555555555554<<<9e6;o  ",
" ;eee<+++%***********%+++<eee;  ",
" ;eee<+#%&***********&%#+<eee;  ",
" ;eee<+%***************%+<eee;  ",
" ;eee4%&***************&%4eee;  ",
" ;eee5*******************5eee;  ",
" :rrr1...................,eee;  ",
" >ttt>                   ;eee;  ",
" >ttt>                   :rrr:  ",
" >ttt>                   >ttt>  ",
" :rrr:                   >ttt>  ",
" ;eee;                   >ttt>  ",
" ;eee;                   :rrr:  ",
" ;eee;                   ;eee;  ",
" ;eee6;;;;;:>>>>>>>:;;;;;6eee;  ",
" ;eeeeeeeeertttttttreeeeeeeee;  ",
" ;eee055578qwwwwwwwq875550eee;  ",
" ;eee5***-33333333333-***5eee;  ",
" ;eee5*=-2333333333332-=*5eee;  ",
" ;eee5*-333333333333333-*5eee;  ",
" ;eee5*-333333333333333-*5eee;  ",
" ;eee5*-333333333333333-*5eee;  ",
" ;eee5*-333333333333333-*5eee;  ",
" ;eee5*-333333333333333-*5eee;  ",
" ;eee5*=-2333333333332-=*5eee;  ",
" ;eee5***-33333333333-***5eee;  ",
" O;;;$...X@@@@@@@@@@@X...$;;;O  ",
"y                             yy",
"y                             yy"
};
