/* XPM */
static char *result[] = {
/* columns rows colors chars-per-pixel */
"32 32 46 1 ",
"  c black",
". c #251816",
"X c #271B1A",
"o c #2F1F1E",
"O c #32211F",
"+ c #222222",
"@ c gray16",
"# c #2D2D2D",
"$ c #382422",
"% c #36302F",
"& c gray21",
"* c #3B3332",
"= c #4D3533",
"- c #423938",
"; c #513431",
": c #563A37",
"> c #5F3F3C",
", c #63413D",
"< c #66433F",
"1 c gray27",
"2 c #4B4B4B",
"3 c gray32",
"4 c #674340",
"5 c #6A4541",
"6 c #6D4642",
"7 c #704844",
"8 c #6B5F5E",
"9 c #7A5D5A",
"0 c #7D5F5C",
"q c #676767",
"w c #6E6463",
"e c #746462",
"r c #766563",
"t c #7D6967",
"y c #7D6C6A",
"u c #7A7474",
"i c #7B7B7B",
"p c #847371",
"a c #8A7674",
"s c #867E7D",
"d c #898989",
"f c #908685",
"g c #948B8A",
"h c #979797",
"j c #A4A4A4",
"k c None",
/* pixels */
"kkkkkkk                 kkkkkkkk",
"kkkk   .$$$$$$$$$$$$$$$.   kkkkk",
"kkk    $777777777777777$    kkkk",
"kk &3-O;777777777777777;O*1# kkk",
"k  3jp,57777777777777775,rd1  kk",
" @3ijp,57777777777777775,rdq1+  ",
" 3jjjp,57777777777777775,rddd1  ",
" 3jjjp,57777777777777775,rddd1  ",
" 3jjjp,57777777777777775,rddd1  ",
" 2hhhy,57777777777777775,yhhh2  ",
" 1dddr,57777777777777775,pjjj3  ",
" 1dddr,57777777777777775,pjjj3  ",
" 1dddr,57777777777777775,pjjj3  ",
" 1dddr,<567777777777765<,pjjj3  ",
" 1dddr,,,5777777777775,,,pjjj3  ",
" 2hhhy,,,<5559aaa9555<,,,pjjj3  ",
" 3jjjp,,,,,,,pjjjp,,,,,,,pjjj3  ",
" 2hhhsrrrrrypgjjjgpyrrrrrshhh2  ",
" 1dddddddddhjjjjjjjhddddddddd1  ",
" 1dddu888etfji333ijfte888uddd1  ",
" 1ddd8===>7aj3   3ja7>===8ddd1  ",
" 1ddd8=:>470aw333wa074>:=8ddd1  ",
" 1ddd8=>77777ajjja77777>=8ddd1  ",
" 1ddd8=>777770aaa077777>=8ddd1  ",
" 1ddd8=>777777777777777>=8ddd1  ",
" 1ddd8=>777777777777777>=8ddd1  ",
" 1ddd8=>777777777777777>=8ddd1  ",
" 1ddd8=:>4777777777774>:=8ddd1  ",
" 1ddd8===>77777777777>===8ddd1  ",
" #111%XXXo$$$$$$$$$$$oXXX%111#  ",
"k                             kk",
"k                             kk"
};
