/* XPM */
static char *_3c666a1479245f889f1f9b89009a2a1ukOLIFJyEx96DOXw[] = {
/* columns rows colors chars-per-pixel */
"32 32 5 1 ",
"  c #4E6337",
". c black",
"X c #B35F0E",
"o c #CB8F18",
"O c #FFD145",
/* pixels */
"                                ",
"                                ",
"      ..........                ",
"      ..........                ",
"    ..OOOOOOOOOO..              ",
"    ..OOOOOOOOOO..              ",
"  ..OOooooooOOooOO..            ",
"  ..OOooooooOOooOO..            ",
"  ..OOooooOOooooOO..            ",
"  ..OOooooOOooooOO..            ",
"  ..XXooOOoooooo..........      ",
"  ..XXooOOoooooo..........      ",
"  ..ooXXooXXXX..OOOOOOOOOO..    ",
"  ..ooXXooXXXX..OOOOOOOOOO..    ",
"  ..XXooOOoo..OOooooooOOooOO..  ",
"  ..XXooOOoo..OOooooooOOooOO..  ",
"  ..ooXXooXX..OOooooOOooooOO..  ",
"  ..ooXXooXX..OOooooOOooooOO..  ",
"  ..XXooOOoo..XXooOOooooooXX..  ",
"  ..XXooOOoo..XXooOOooooooXX..  ",
"  ..ooXXooXX..ooXXooXXXXXXoo..  ",
"  ..ooXXooXX..ooXXooXXXXXXoo..  ",
"  ..XXooOOoo..XXooOOooooooXX..  ",
"  ..XXooOOoo..XXooOOooooooXX..  ",
"    ..XXXXXX..ooXXooXXXXXXoo..  ",
"    ..XXXXXX..ooXXooXXXXXXoo..  ",
"      ........XXooOOooooooXX..  ",
"      ........XXooOOooooooXX..  ",
"              ..XXXXXXXXXX..    ",
"              ..XXXXXXXXXX..    ",
"                ..........      ",
"                ..........      "
};
