/* XPM */
static char *_b443019e82e4396a71b40827a6f28c11GsGStsGiyHk6qfz[] = {
/* columns rows colors chars-per-pixel */
"32 32 57 1 ",
"  c #041E6E",
". c #0B306B",
"X c #185266",
"o c #206663",
"O c #195266",
"+ c #0C316B",
"@ c #195465",
"# c #206463",
"$ c #1F6363",
"% c #1F6463",
"& c #206563",
"* c #195365",
"= c #051F6D",
"- c #05216D",
"; c #103D69",
": c #1A5665",
"> c #0A2B6C",
", c #144667",
"< c #1B5965",
"1 c #1E6163",
"2 c #1A5765",
"3 c #113E69",
"4 c #0A2C6B",
"5 c #07256D",
"6 c #1D5F64",
"7 c #195366",
"8 c #06236D",
"9 c #113F69",
"0 c #1E6063",
"q c #1B5865",
"w c #1B5765",
"e c #06226D",
"r c #206662",
"t c #0C306B",
"y c #113D69",
"u c #0A2C6C",
"i c #144767",
"p c #1A5565",
"a c #051E6E",
"s c #0A2D6B",
"d c #0C326A",
"f c #05206D",
"g c #07246D",
"h c #051F6E",
"j c #07236D",
"k c #0C326B",
"l c #0B2F6B",
"z c #1E6064",
"x c #103C69",
"c c #144568",
"v c #092A6C",
"b c #1B5A64",
"n c #154867",
"m c #195565",
"M c #06216D",
"N c #07256C",
"B c white",
/* pixels */
" .XooO.+@o#$$$$%&*.=--=.*&%%&X. ",
".;:&&O.>,<1%$$$%%23455432%%%%:;.",
"X:6#&7.849<&%$$$$0q,44,q0$$$$6:X",
"&%$%%w3>e>,<1%$$$&r@+t@o#$$$$%&o",
"%%$$$0q,>e>3<&%$$&r@+t*&%$$$$%&o",
"$$$$$%&<3>e>,<1&&1<,>.O&%$$$$62*",
"$$$$$$%1<,>e>3<rr<3>e.7&%$$%%2y.",
"$$$$$$$%&<3>euippiue>3w%%$$%&O.a",
"$$$$$$$$%1<,>8sdds8>,q0$$$$%&O+=",
"$$$$$$$$$%&<348=fg43<&%$$$$%&7+f",
"$$$$$$$$$$%1<,u hsi<1%$$$$$%&7+f",
"$$$$$$$$$$$%&<3ujk@o#$$$$$$%&7+f",
"$$$$$$$$$$$$%1<,4+*&%$$$$$$%&7+f",
"$$$$$$$$$$$$$#o@+.O&%$$$$$$%&7+f",
"$$$$$$$$$$$$$%&*t.O&%$$$$$$%&7+f",
"%%%%$$$$$$%%$%&OllO&%$$$$$$%&7+f",
"&&&%$$$$$$%%$%&XllX&%$$$$$$%&7+f",
"OO7w0%$$%z226%#:xx:%%$$$$$$%&7+f",
"...3q&%%&q;x:#%6226$$$$$$$$%&7+f",
"+>8>,<11<cvlX&%$%%$$$$$$$$$%&7+f",
"@,4e>9bb9>elO&%$%%$$$$$$$$$%&7+f",
"o<9>e4nns8u3w%%$$$$$$$$$$$$%&7+f",
"#1<,>8ssgsiq0$$$$$$$$$$$$$$%&7+f",
"$%&<348hfkmo#$$$$$$$$$$$$$$%&7+f",
"$$%1<,u =k@&%$$$$$$$$$$$$$$%&7+f",
"$$$%&<3ug+*&%$$$$$$$$$$$$$$%&*kf",
"$$$$%1<,4+7&%$$$$$$$$$$$$$$#o@kf",
"%%$$$&r@+t*o&%%%%%%%%%%%%%#1q,sf",
"&%$$$&r@+t*oo&&&&&&&&&&&&&oq3s5e",
"X:6%%0q,4s,@*777777777777*@,sfMe",
".;:&&2345Nskk++++++++++++kks5Mee",
" .Xoo*.=-e-fffffffffffffffffeeee"
};
