/* XPM */
static char *result[] = {
/* columns rows colors chars-per-pixel */
"32 32 60 1 ",
"  c gray8",
". c #151515",
"X c #1D1913",
"o c #1E1B14",
"O c #261F13",
"+ c #211D14",
"@ c #18201C",
"# c #19221D",
"$ c #2D2413",
"% c #302513",
"& c #332712",
"* c #3E2E12",
"= c #1B2A22",
"- c #1D3429",
"; c #212D22",
": c #203122",
"> c #273121",
", c #203525",
"< c #2F3621",
"1 c #2C3D25",
"2 c #203E2F",
"3 c #383B20",
"4 c #4F3711",
"5 c #4C3814",
"6 c #41361C",
"7 c #254029",
"8 c #3E4E25",
"9 c #37512D",
"0 c #3F582E",
"q c #254932",
"w c #2A5536",
"e c #315331",
"r c #2F6039",
"t c #3D653A",
"y c #346B3C",
"u c #38683B",
"i c #3D733E",
"p c #5A4316",
"a c #57441B",
"s c #644F1A",
"d c #544420",
"f c #5E4C26",
"g c #465F2E",
"h c #705A24",
"j c #546B2E",
"k c #466D37",
"l c #7B642D",
"z c #477C41",
"x c #65893A",
"c c #508443",
"v c #598C45",
"b c #619346",
"n c #689B46",
"m c #70A247",
"M c #76A746",
"N c #77A847",
"B c #77A947",
"V c #85B547",
"C c #93C147",
"Z c None",
/* pixels */
"ZZZZZZZZZZZZZ.....ZZZZZZZZZZZZZZ",
"ZZZZZZZZZZZZ.8jjj8.ZZZZZZZZZZZZZ",
"ZZZZZZZZZZZ..jCCCj..ZZZZZZZZZZZZ",
"ZZZZZZZZZZ.19xCCCx91.ZZZZZZZZZZZ",
"ZZZZZZZZZ..9vMCCCMv9..ZZZZZZZZZZ",
"ZZZZZZZZZ..0nNVVVNn0..ZZZZZZZZZZ",
"ZZZZZZZZZ..gBBBBBBBg..ZZZZZZZZZZ",
"ZZZZZZZZ.:7knmBBBmnk7:.ZZZZZZZZZ",
"ZZZZZZZ..7yzvnBBBnvzy7..ZZZZZZZZ",
"ZZZZZZ.#=ezcvbnnnbvcze=#.ZZZZZZZ",
"ZZZZZ..=2tvvvvvvvvvvvt2=..ZZZZZZ",
"ZZZZZ..,wuzcvvvvvvvczuw,..ZZZZZZ",
"ZZZZZ..7yyyzvvvvvvvzyyy7..ZZZZZZ",
"ZZZZZ..7yyyizzzzzzziyyy7..ZZZZZZ",
"ZZZZZ..7yyyyyyyyyyyyyyy7..ZZZZZZ",
"ZZZZZ..,wryyyyyyyyyyyrw,..ZZZZZZ",
"ZZZZZ..=2wyyyyyyyyyyyw2=..ZZZZZZ",
"ZZZZZ..=2qwwwwwwwwwwwq2=..ZZZZZZ",
"ZZZZZ..=222222222222222=..ZZZZZZ",
"ZZZZZZ.@=-22222222222-=@.ZZZZZZZ",
"ZZZZZZZ..=22222222222=..ZZZZZZZZ",
"ZZZZZZZ .@=;><333<>;=@. ZZZZZZZZ",
"ZZZZZZZZZ..+$*444*$+..ZZZZZZZZZZ",
"ZZZZZZZZZX+%*5ppp5*%+XZZZZZZZZZZ",
"ZZZZZZZZZO$*4psssp4*$OZZZZZZZZZZ",
"ZZZZZZZZZoO&*ahhha*&OoZZZZZZZZZZ",
"ZZZZZZZZZZZO$dllld$OZZZZZZZZZZZZ",
"ZZZZZZZZZZZoO6fff6OoZZZZZZZZZZZZ",
"ZZZZZZZZZZZZZZZZZZZZZZZZZZZZZZZZ",
"ZZZZZZZZZZZZZZZZZZZZZZZZZZZZZZZZ",
"ZZZZZZZZZZZZZZZZZZZZZZZZZZZZZZZZ",
"ZZZZZZZZZZZZZZZZZZZZZZZZZZZZZZZZ"
};
