/* XPM */
static char *result[] = {
/* columns rows colors chars-per-pixel */
"32 32 158 2 ",
"   c #0F0404",
".  c #0C0909",
"X  c #0E0D0D",
"o  c #160202",
"O  c #120808",
"+  c #141008",
"@  c #171109",
"#  c #131313",
"$  c #151514",
"%  c gray9",
"&  c gray10",
"*  c #1B1B1B",
"=  c #200101",
"-  c #340303",
";  c #221C11",
":  c #331F1F",
">  c #3A1C1C",
",  c #3E1C1C",
"<  c #3A2D11",
"1  c #3C2A16",
"2  c #222120",
"3  c gray14",
"4  c #252525",
"5  c #2C2B29",
"6  c #2D2D2C",
"7  c gray18",
"8  c #322D21",
"9  c #332C29",
"0  c #302F2D",
"q  c #36322B",
"w  c #33312E",
"e  c #38332A",
"r  c #313030",
"t  c #323232",
"y  c #333332",
"u  c #353534",
"i  c #353535",
"p  c #373737",
"a  c gray22",
"s  c #393939",
"d  c #3A3938",
"f  c gray23",
"g  c #3C3B3B",
"h  c #3D3C3C",
"j  c gray24",
"k  c #3E3D3D",
"l  c #400404",
"z  c #470707",
"x  c #4B0606",
"c  c #500B0B",
"v  c #670303",
"b  c #6B0404",
"n  c #760505",
"m  c #791212",
"M  c #4A3915",
"N  c #4B341B",
"B  c #4A3E36",
"V  c #503131",
"C  c #543231",
"Z  c #652A2A",
"A  c #5D4936",
"S  c #6F4D36",
"D  c #644638",
"F  c #674A3B",
"G  c #7A4F31",
"H  c #734E3A",
"J  c #64513B",
"K  c #414040",
"L  c #424141",
"P  c #464545",
"I  c #4A4948",
"U  c #4B4A49",
"Y  c #4D4C4A",
"T  c #4D4C4B",
"R  c #4F4D4A",
"E  c gray30",
"W  c #4E4E4E",
"Q  c #564D46",
"!  c #5C4E43",
"~  c #534C4C",
"^  c #5C514F",
"/  c #545351",
"(  c #575553",
")  c #5B5A58",
"_  c #5F5E5B",
"`  c #7D5743",
"'  c #655E55",
"]  c #615F5C",
"[  c #64625F",
"{  c gray39",
"}  c #6B6965",
"|  c #6C6A67",
" . c #7D7769",
".. c #797671",
"X. c #7D7A75",
"o. c gray48",
"O. c #7D7C7B",
"+. c #7C7C7C",
"@. c #7F7E7C",
"#. c #800404",
"$. c #AC0A0A",
"%. c #B00A0A",
"&. c #8C562C",
"*. c #835B2E",
"=. c #83613C",
"-. c #956433",
";. c #815A46",
":. c #815C47",
">. c #895D46",
",. c #AF7340",
"<. c #857D6A",
"1. c #857A7A",
"2. c #817F79",
"3. c #BE8342",
"4. c #85827E",
"5. c #AB8D69",
"6. c #A18A7E",
"7. c #C08146",
"8. c #CA8444",
"9. c #D49149",
"0. c #ED9D4E",
"q. c #F3A552",
"w. c #F6A954",
"e. c #F4B269",
"r. c #898782",
"t. c #8B8882",
"y. c #8E8B85",
"u. c #908D87",
"i. c #94918A",
"p. c #93908C",
"a. c #96938E",
"s. c #969490",
"d. c #9D9991",
"f. c #A29E96",
"g. c #A09E9A",
"h. c #B9A286",
"j. c #A4A099",
"k. c #AAA69F",
"l. c #A5A5A5",
"z. c #AEA7A3",
"x. c #B1ADA6",
"c. c #B5AEA6",
"v. c #B2B2B2",
"b. c gray70",
"n. c #BAB7B1",
"m. c #BDBAB5",
"M. c #BEBBB5",
"N. c #C6AEA3",
"B. c #C1BEBA",
"V. c #C0BEBB",
"C. c #EFC79A",
"Z. c #DCC6AD",
"A. c gray78",
"S. c #CAC8C4",
"D. c #C8C8C8",
"F. c #DAD3CB",
"G. c gray83",
"H. c #4E6337",
/* pixels */
"H.H.H.H.H.H.H.H.H.H.H.H.H.H.H.H.H.H.H.H.H.H.H.H.H.H.H.H.H.H.H.H.",
"H.H.H.H.H.H.H.H.H.H.H.H.H.H.H.H.H.H.H.H.H.H.H.H.H.H.H.H.H.H.H.H.",
"H.H.H.H.H.H.H.H.H.H.H.H.H.H.H.H.H.H.H.H.H.H.H.H.H.H.H.H.H.H.H.H.",
"H.H.H.H.H.H.H.H.H.H.H.H.H.H.H.H.H.H.H.H.H.H.H.H.H.H.H.H.H.H.H.H.",
"H.H.H.H.H.H.H.H.H.H.H.H.H.H.H.H.H.H.H.H.H.H.H.H.H.H.H.H.H.H.H.H.",
"H.H.H.H.H.H.H.H.H.H.H.H.H.H.H.H.H.H.H.H.H.H.H.H.H.H.H.H.H.H.H.H.",
"H.H.H.H.H.H.H.H.H.f x 1.H.t * 5 0 2 % +.H.Z o H.H.H.H.H.H.H.H.H.",
"H.H.H.H.H.H.H.H.H.f $.l . y I X.t.) L %   %.- H.H.H.H.H.H.H.H.H.",
"H.H.H.H.H.H.H.H.H.f b v : k U y.f.] P 7 c #.= H.H.H.H.H.H.H.H.H.",
"H.H.H.H.H.H.H.H.H.H.> n V a K 2.i.( s h m z ~ H.H.H.H.H.H.H.H.H.",
"H.H.H.H.H.H.H.H.H.H.f , ^ _ _ r.a.| _ _ C O H.H.H.H.H.H.H.H.H.H.",
"H.H.H.H.H.H.H.H.H.H.f 6 ..d.k.n.M.x.j.u.Y X H.H.H.H.H.H.H.H.H.H.",
"H.H.H.H.H.H.H.H.H.H.H.3 s.m.S.g.p.V.B.m.d W H.H.H.H.H.H.H.H.H.H.",
"H.H.H.H.H.H.H.H.H.H.H.4 v.l.G.@._ D.l.G.i o.H.H.H.H.H.H.H.H.H.H.",
"H.H.H.H.H.H.H.H.H.H.J @ b.+.A.h.5.F.+.A.p N 4.H.H.H.H.H.H.H.H.H.",
"H.H.H.H.H.H.H.H.H.J 9.1 6.z.Z.e.w.C.c.N.9 3.*.4.H.H.H.H.H.H.H.H.",
"H.H.H.H.H.H.H.H.j 3.0.A ;.D ,.8.8.8.S >.B 7.q.1 H.H.H.H.H.H.H.H.",
"H.H.H.H.H.H.H.H.H.=.&.! R F ` :.:.:.H Q R G -.' H.H.H.H.H.H.H.H.",
"H.H.H.H.H.H.H.H.H.H.{ { & g [ } } } / $ E { { H.H.H.H.H.H.H.H.H.",
"H.H.H.H.H.H.H.H.H.H.H.H.j u U T T T P # H.H.H.H.H.H.H.H.H.H.H.H.",
"H.H.H.H.H.H.H.H.H.H.H.H.q 8 w r r r e ; O.H.H.H.H.H.H.H.H.H.H.H.",
"H.H.H.H.H.H.H.H.H.H.H.j < M + E { & < M + H.H.H.H.H.H.H.H.H.H.H.",
"H.H.H.H.H.H.H.H.H.H.H.H. .<.} H.H.H. .<.} H.H.H.H.H.H.H.H.H.H.H.",
"H.H.H.H.H.H.H.H.H.H.H.H.H.H.H.H.H.H.H.H.H.H.H.H.H.H.H.H.H.H.H.H.",
"H.H.H.H.H.H.H.H.H.H.H.H.H.H.H.H.H.H.H.H.H.H.H.H.H.H.H.H.H.H.H.H.",
"H.H.H.H.H.H.H.H.H.H.H.H.H.H.H.H.H.H.H.H.H.H.H.H.H.H.H.H.H.H.H.H.",
"H.H.H.H.H.H.H.H.H.H.H.H.H.H.H.H.H.H.H.H.H.H.H.H.H.H.H.H.H.H.H.H.",
"H.H.H.H.H.H.H.H.H.H.H.H.H.H.H.H.H.H.H.H.H.H.H.H.H.H.H.H.H.H.H.H.",
"H.H.H.H.H.H.H.H.H.H.H.H.H.H.H.H.H.H.H.H.H.H.H.H.H.H.H.H.H.H.H.H.",
"H.H.H.H.H.H.H.H.H.H.H.H.H.H.H.H.H.H.H.H.H.H.H.H.H.H.H.H.H.H.H.H.",
"H.H.H.H.H.H.H.H.H.H.H.H.H.H.H.H.H.H.H.H.H.H.H.H.H.H.H.H.H.H.H.H.",
"H.H.H.H.H.H.H.H.H.H.H.H.H.H.H.H.H.H.H.H.H.H.H.H.H.H.H.H.H.H.H.H."
};
