/* XPM */
static char *result[] = {
/* columns rows colors chars-per-pixel */
"32 31 18 1 ",
"  c black",
". c #040404",
"X c #1E1E1E",
"o c #290505",
"O c #3F3013",
"+ c gray21",
"@ c #520C0C",
"# c #4D4C4B",
"$ c #7D7B76",
"% c #AE0000",
"& c #FF1515",
"* c #84482A",
"= c #D97F40",
"- c #F6A954",
"; c #A29E96",
": c #BEBBB5",
"> c gray91",
", c #4E6337",
/* pixels */
",,,,,,,,,,,,,,,,,,,,,,,,,,,,,,,,",
",,,,,,,,,,,,,,,,,,,,,,,,,,,,,,,,",
",,,,,,,,,,,,,,,,,,,,,,,,,,,,,,,,",
",,,,,,,,,,,,,,,,,,,,,,,,,,,,,,,,",
",,,,,,,,,,,,,,,,,,,,,,,,,,,,,,,,",
",,,,,,,,,,,,,,,,,,,,,,,,,,,,,,,,",
",,,,,,,,,,,,,,,,,,,,,,,,,,,,,,,,",
",,,,,,,,,,,,,,,,,,,,,,,,,,,,,,,,",
",,,,,,,,,  ,,      ,,  ,,,,,,,,,",
",,,,,,,,, &  +#$$#+  & ,,,,,,,,,",
",,,,,,,,, %oX##;;##Xo% ,,,,,,,,,",
",,,,,,,,, @%++#;;#++%@ ,,,,,,,,,",
",,,,,,,,,, @#++$$++#@ ,,,,,,,,,,",
",,,,,,,,,, #$;;::;;$# ,,,,,,,,,,",
",,,,,,,,,, X;;::::;;X ,,,,,,,,,,",
",,,,,,,,,,, #++##++# ,,,,,,,,,,,",
",,,,,,,,,,, $>.$$.>$ ,,,,,,,,,,,",
",,,,,,,,,,,.+##--##+.,,,,,,,,,,,",
",,,,,,,,,,.$$+****+$$.,,,,,,,,,,",
",,,,,,,,,.--.#$$$$#.--.,,,,,,,,,",
",,,,,,,,,.-=.######.=-.,,,,,,,,,",
",,,,,,,,,,...+####+...,,,,,,,,,,",
",,,,,,,,,,,,.OO..OO.,,,,,,,,,,,,",
",,,,,,,,,,,,,,,,,,,,,,,,,,,,,,,,",
",,,,,,,,,,,,,,,,,,,,,,,,,,,,,,,,",
",,,,,,,,,,,,,,,,,,,,,,,,,,,,,,,,",
",,,,,,,,,,,,,,,,,,,,,,,,,,,,,,,,",
",,,,,,,,,,,,,,,,,,,,,,,,,,,,,,,,",
",,,,,,,,,,,,,,,,,,,,,,,,,,,,,,,,",
",,,,,,,,,,,,,,,,,,,,,,,,,,,,,,,,",
",,,,,,,,,,,,,,,,,,,,,,,,,,,,,,,,"
};
