/* XPM */
static char *result[] = {
/* columns rows colors chars-per-pixel */
"32 32 61 1 ",
"  c black",
". c #040404",
"X c #0C0C0C",
"o c #110202",
"O c #1C160A",
"+ c gray7",
"@ c #131313",
"# c #161616",
"$ c #1E1E1E",
"% c #201F1F",
"& c #202020",
"* c gray13",
"= c #222221",
"- c #282828",
"; c #2C2C2C",
": c #2F2E2E",
"> c #313130",
", c #333230",
"< c gray21",
"1 c #3A3939",
"2 c #3F3F3F",
"3 c #461D1D",
"4 c #600303",
"5 c #690909",
"6 c #4F2C1A",
"7 c #502626",
"8 c #444342",
"9 c #4D4C4B",
"0 c #535250",
"q c #565552",
"w c #605F5C",
"e c #615F5D",
"r c #62615D",
"t c #696864",
"y c #6C6965",
"u c DimGray",
"i c #6A6A6A",
"p c #706E6A",
"a c #76736F",
"s c #7E796F",
"d c #7D7B76",
"f c #7F7C77",
"g c gray50",
"h c #880505",
"j c #DE0C0C",
"k c #824D27",
"l c #936533",
"z c #806657",
"x c #AF8E68",
"c c #EA984C",
"v c #F6A954",
"b c #868481",
"n c #8C8983",
"m c #908D89",
"M c #939089",
"N c #989590",
"B c #A29E96",
"V c #ADAAA3",
"C c gray66",
"Z c #BEBBB5",
"A c None",
/* pixels */
"AAAAAAAAAAAAAAAAAAAAAAAAAAAAAAAA",
"AAAAAAAAAAAAAAAAAAAAAAAAAAAAAAAA",
"AAAAAAAAAAAAAAAAAAAAAAAAAAAAAAAA",
"AAAAAAAAAAAAAAAAAAAAAAAAAAAAAAAA",
"AAAAAAAAAAAAAAAAAAAAAAAAAAAAAAAA",
"AAAAAAAAAAAAAAAAAAAAAAAAAAAAAAAA",
"AAAAAAAAAAAAAAAAAAAAAAAAAAAAAAAA",
"AAAAAAAAAAAAAAAAAAAAAAAAAAAAAAAA",
"AAAAAAAAAAAAAAAAA5 AAAAAAAAAAAAA",
"AAAAAAAAAAAAA%,,oj AAAAAAAAAAAAA",
"AAAAAAAAAAAA#pnt4hX#AAAAAAAAAAAA",
"AAAAAAAAAAA#rBa9h7><#AAAAAAAAAAA",
"AAAAAAAAAA rMM<83ee02 AAAAAAAAAA",
"AAAAAAAAAA MNNrr0ddt8 AAAAAAAAAA",
"AAAAAAAAAA wZZVBnqq1; AAAAAAAAAA",
"AAAAAAAAAAu&mbbfy$$$+uAAAAAAAAAA",
"AAAAAAAAAAA e*ge--$$ AAAAAAAAAAA",
"AAAAAAAAAAA z=Cw<<-@uAAAAAAAAAAA",
"AAAAAAAAAAA 688002*iAAAAAAAAAAAA",
"AAAAAAAAAAAu.22dd9.AAAAAAAAAAAAA",
"AAAAAAAAAAAA.9:xx:.AAAAAAAAAAAAA",
"AAAAAAAAAAAA.8.cv..AAAAAAAAAAAAA",
"AAAAAAAAAAAAi*Okl.iAAAAAAAAAAAAA",
"AAAAAAAAAAAAAisiiiAAAAAAAAAAAAAA",
"AAAAAAAAAAAAAAAAAAAAAAAAAAAAAAAA",
"AAAAAAAAAAAAAAAAAAAAAAAAAAAAAAAA",
"AAAAAAAAAAAAAAAAAAAAAAAAAAAAAAAA",
"AAAAAAAAAAAAAAAAAAAAAAAAAAAAAAAA",
"AAAAAAAAAAAAAAAAAAAAAAAAAAAAAAAA",
"AAAAAAAAAAAAAAAAAAAAAAAAAAAAAAAA",
"AAAAAAAAAAAAAAAAAAAAAAAAAAAAAAAA",
"AAAAAAAAAAAAAAAAAAAAAAAAAAAAAAAA"
};
