/* XPM */
static char *result[] = {
/* columns rows colors chars-per-pixel */
"32 32 63 1 ",
"  c black",
". c gray1",
"X c #040000",
"o c #040404",
"O c gray2",
"+ c #070706",
"@ c #090805",
"# c gray4",
"$ c #0B0B0A",
"% c #160202",
"& c #161616",
"* c #191919",
"= c #1B1B1B",
"- c gray11",
"; c #1E1E1E",
": c #340505",
"> c #202020",
", c #222222",
"< c #313131",
"1 c #323232",
"2 c #343434",
"3 c gray21",
"4 c gray22",
"5 c #3C3C3B",
"6 c #3F3F3E",
"7 c #501010",
"8 c #521111",
"9 c #4B3E26",
"0 c #7F482D",
"q c gray27",
"w c #474645",
"e c #494847",
"r c #4B4A49",
"t c #4D4C4B",
"y c #524C48",
"u c #51504F",
"i c #545351",
"p c #75736E",
"a c #777570",
"s c #797772",
"d c #7D7B76",
"f c #A60101",
"g c #F81313",
"h c #9C532F",
"j c #C7743B",
"k c #817870",
"l c #877F73",
"z c #807E79",
"x c #82807B",
"c c #E19B4D",
"v c #F3A552",
"b c #F6A954",
"n c #97938C",
"m c #99958E",
"M c #9B978F",
"N c #9F9B93",
"B c #A29E96",
"V c #A4A099",
"C c #B2B0AA",
"Z c #B4B1AC",
"A c #BEBBB5",
"S c #DBDBDA",
"D c #4E6337",
/* pixels */
"DDDDDDDDDDDDDDDDDDDDDDDDDDDDDDDD",
"DDDDDDDDDDDDDDDDDDDDDDDDDDDDDDDD",
"DDDDDDDDDDDDDDDDDDDDDDDDDDDDDDDD",
"DDDDDDDDDDDDDDDDDDDDDDDDDDDDDDDD",
"DDDDDDDDDDDDDDDDDDDDDDDDDDDDDDDD",
"DDDDDDDDDDDDDDDDDDDDDDDDDDDDDDDD",
"DDDDDDDDDDDDDDDDDDDDDDDDDDDDDDDD",
"DDDDDDDDDDDDDDDDDDDDDDDDDDDDDDDD",
"DDDDDDDDDDDDD %DDDDDDDDDDDDDDDDD",
"DDDDDDDDDDDDD gX$$+DDDDDDDDDDDDD",
"DDDDDDDDDDDDO.f:sziODDDDDDDDDDDD",
"DDDDDDDDDDDO3,8ftmB6ODDDDDDDDDDD",
"DDDDDDDDDD 45uu7r3NN6 DDDDDDDDDD",
"DDDDDDDDDD rsdd566xxN DDDDDDDDDD",
"DDDDDDDDDD 2eppzBVAAa DDDDDDDDDD",
"DDDDDDDDDD&=;;;nMCCZ<&DDDDDDDDDD",
"DDDDDDDDDDD ;;>>uq1u DDDDDDDDDDD",
"DDDDDDDDDDD&->33aS#k DDDDDDDDDDD",
"DDDDDDDDDDDD*1455ryh DDDDDDDDDDD",
"DDDDDDDDDDDDDotdd40o&DDDDDDDDDDD",
"DDDDDDDDDDDDDowllwtoDDDDDDDDDDDD",
"DDDDDDDDDDDDDoobvoroDDDDDDDDDDDD",
"DDDDDDDDDDDDD*ocj@1*DDDDDDDDDDDD",
"DDDDDDDDDDDDDD***9*DDDDDDDDDDDDD",
"DDDDDDDDDDDDDDDDDDDDDDDDDDDDDDDD",
"DDDDDDDDDDDDDDDDDDDDDDDDDDDDDDDD",
"DDDDDDDDDDDDDDDDDDDDDDDDDDDDDDDD",
"DDDDDDDDDDDDDDDDDDDDDDDDDDDDDDDD",
"DDDDDDDDDDDDDDDDDDDDDDDDDDDDDDDD",
"DDDDDDDDDDDDDDDDDDDDDDDDDDDDDDDD",
"DDDDDDDDDDDDDDDDDDDDDDDDDDDDDDDD",
"DDDDDDDDDDDDDDDDDDDDDDDDDDDDDDDD"
};
